<svg width="113" height="38" viewBox="0 0 113 38" fill="none" xmlns="http://www.w3.org/2000/svg">
<g clip-path="url(#clip0_239_3807)">
<path d="M41.2256 21.1649C42.1483 21.6792 42.8712 22.4032 43.3957 23.3357C43.9201 24.2681 44.1823 25.3529 44.1823 26.5913C44.1823 27.8296 43.9201 28.9144 43.3957 29.8469C42.87 30.7793 42.1471 31.5021 41.2256 32.0177C40.3042 32.532 39.2798 32.7892 38.1562 32.7892C36.611 32.7892 35.3967 32.3053 34.512 31.3351V36.9504H31.0039V20.5737H34.3552V21.9608C35.2252 20.9174 36.4922 20.3945 38.1562 20.3945C39.281 20.3945 40.3042 20.6517 41.2256 21.1661V21.1649ZM39.7638 29.018C40.3409 28.4135 40.6301 27.6054 40.6301 26.5913C40.6301 25.5772 40.3409 24.7678 39.7638 24.1633C39.1867 23.5587 38.4478 23.2577 37.5484 23.2577C36.649 23.2577 35.9101 23.5599 35.333 24.1633C34.7559 24.7678 34.4667 25.5772 34.4667 26.5913C34.4667 27.6054 34.7559 28.4147 35.333 29.018C35.9101 29.6226 36.649 29.9237 37.5484 29.9237C38.4478 29.9237 39.1867 29.6214 39.7638 29.018Z" fill="#403346"/>
<path d="M51.5711 20.8394C52.283 20.5408 53.104 20.3921 54.034 20.3921V23.6136C53.6443 23.5843 53.3821 23.5685 53.2461 23.5685C52.2413 23.5685 51.4547 23.8476 50.8849 24.407C50.3151 24.9665 50.0296 25.8051 50.0296 26.924V32.6064H46.5215V20.57H49.8728V22.1582C50.2918 21.5768 50.8579 21.1368 51.5711 20.8382V20.8394Z" fill="#403346"/>
<path d="M59.7679 20.4819H56.2598V32.5183H59.7679V20.4819Z" fill="#403346"/>
<path d="M65.267 31.9933C64.2402 31.4643 63.4376 30.7293 62.8604 29.7896C62.2833 28.8498 61.9941 27.7833 61.9941 26.59C61.9941 25.3968 62.2833 24.3303 62.8604 23.3905C63.4376 22.4508 64.2402 21.7158 65.267 21.1868C66.2938 20.6578 67.4518 20.3921 68.742 20.3921C70.0323 20.3921 71.1302 20.6566 72.0823 21.1868C73.0344 21.717 73.7279 22.4727 74.1629 23.4575L71.4414 24.9117C70.8116 23.8086 69.9036 23.2564 68.72 23.2564C67.8047 23.2564 67.0474 23.5551 66.4482 24.1511C65.8478 24.7483 65.5488 25.5601 65.5488 26.59C65.5488 27.62 65.849 28.4318 66.4482 29.029C67.0474 29.6262 67.8047 29.9236 68.72 29.9236C69.9196 29.9236 70.8263 29.3715 71.4414 28.2684L74.1629 29.7445C73.7279 30.6989 73.0344 31.4448 72.0823 31.9823C71.1302 32.5186 70.0164 32.788 68.742 32.788C67.4677 32.788 66.2938 32.5235 65.267 31.9933Z" fill="#403346"/>
<path d="M87.816 27.5734H78.6615C78.827 28.3194 79.2166 28.9081 79.8317 29.3408C80.4456 29.7735 81.2114 29.9892 82.1255 29.9892C82.7554 29.9892 83.3141 29.8966 83.8006 29.7101C84.287 29.5236 84.7416 29.2286 85.1607 28.8264L87.0269 30.84C85.8873 32.1381 84.2233 32.7865 82.0336 32.7865C80.6686 32.7865 79.4617 32.522 78.4128 31.9918C77.3627 31.4628 76.554 30.7279 75.9842 29.7881C75.4144 28.8484 75.1289 27.7819 75.1289 26.5886C75.1289 25.3953 75.4095 24.3483 75.9719 23.4C76.5344 22.453 77.3063 21.7143 78.289 21.1853C79.2705 20.6563 80.3696 20.3906 81.5839 20.3906C82.7982 20.3906 83.841 20.6442 84.8004 21.1512C85.7599 21.6582 86.5134 22.3859 87.0612 23.333C87.6089 24.28 87.8821 25.3807 87.8821 26.6325C87.8821 26.6776 87.8601 26.9908 87.8147 27.5722L87.816 27.5734ZM79.6063 23.7035C79.0659 24.1508 78.7363 24.7627 78.6162 25.5379H84.5762C84.4561 24.7773 84.1265 24.1691 83.5861 23.7145C83.047 23.2598 82.3865 23.0319 81.6072 23.0319C80.8279 23.0319 80.1454 23.2562 79.605 23.7035H79.6063Z" fill="#403346"/>
<path d="M95.2722 20.8394C95.9842 20.5408 96.8051 20.3921 97.7352 20.3921V23.6136C97.3455 23.5843 97.0833 23.5685 96.9473 23.5685C95.9425 23.5685 95.1558 23.8476 94.5861 24.407C94.0163 24.9665 93.7308 25.8051 93.7308 26.924V32.6064H90.2227V20.57H93.5739V22.1582C93.993 21.5768 94.5591 21.1368 95.2722 20.8382V20.8394Z" fill="#403346"/>
<path d="M112.264 20.5713L106.799 33.3463C106.244 34.7333 105.558 35.7096 104.74 36.2776C103.923 36.8444 102.937 37.1284 101.783 37.1284C101.153 37.1284 100.53 37.0309 99.9163 36.8371C99.3012 36.6433 98.7988 36.3752 98.4092 36.0314L99.6909 33.5486C99.9604 33.7875 100.272 33.974 100.625 34.1081C100.976 34.2421 101.325 34.3092 101.67 34.3092C102.15 34.3092 102.54 34.1934 102.84 33.963C103.14 33.7314 103.41 33.3475 103.65 32.8112L103.695 32.699L98.4545 20.5725H102.075L105.472 28.7389L108.891 20.5725H112.264V20.5713Z" fill="#403346"/>
<path d="M58.0057 18.894C59.0864 18.894 59.9625 18.0226 59.9625 16.9475C59.9625 15.8725 59.0864 15.001 58.0057 15.001C56.9249 15.001 56.0488 15.8725 56.0488 16.9475C56.0488 18.0226 56.9249 18.894 58.0057 18.894Z" fill="#1E0F25"/>
<path d="M5.38677 36.9988C8.21619 36.9988 10.5099 34.7172 10.5099 31.9027C10.5099 29.0882 8.21619 26.8066 5.38677 26.8066C2.55736 26.8066 0.263672 29.0882 0.263672 31.9027C0.263672 34.7172 2.55736 36.9988 5.38677 36.9988Z" fill="#1E0F25"/>
<path d="M13.6749 0.126953C6.26779 0.126953 0.263672 6.09941 0.263672 13.4675C0.263672 20.8355 6.26779 26.808 13.6749 26.808C21.082 26.808 27.0861 20.8343 27.0861 13.4675C27.0861 6.10063 21.0808 0.126953 13.6749 0.126953ZM13.6749 18.5624C10.8456 18.5624 8.55303 16.2806 8.55303 13.4663C8.55303 10.6519 10.8456 8.37017 13.6749 8.37017C16.5042 8.37017 18.798 10.6519 18.798 13.4663C18.798 16.2806 16.5054 18.5624 13.6749 18.5624Z" fill="#403346"/>
</g>
<defs>
<clipPath id="clip0_239_3807">
<rect width="112" height="37" fill="white" transform="translate(0.263672 0.126953)"/>
</clipPath>
</defs>
</svg>
