<svg width="25" height="25" viewBox="0 0 25 25" fill="none" xmlns="http://www.w3.org/2000/svg">
<path d="M4.86523 20.5C4.31523 20.5 3.8444 20.3042 3.45273 19.9125C3.06107 19.5208 2.86523 19.05 2.86523 18.5V6.5C2.86523 5.95 3.06107 5.47917 3.45273 5.0875C3.8444 4.69583 4.31523 4.5 4.86523 4.5H20.8652C21.4152 4.5 21.8861 4.69583 22.2777 5.0875C22.6694 5.47917 22.8652 5.95 22.8652 6.5V18.5C22.8652 19.05 22.6694 19.5208 22.2777 19.9125C21.8861 20.3042 21.4152 20.5 20.8652 20.5H4.86523ZM20.8652 8.5L13.3902 13.175C13.3069 13.225 13.2194 13.2625 13.1277 13.2875C13.0361 13.3125 12.9486 13.325 12.8652 13.325C12.7819 13.325 12.6944 13.3125 12.6027 13.2875C12.5111 13.2625 12.4236 13.225 12.3402 13.175L4.86523 8.5V18.5H20.8652V8.5ZM12.8652 11.5L20.8652 6.5H4.86523L12.8652 11.5ZM4.86523 8.75V7.275V7.3V7.2875V8.75Z" fill="white"/>
</svg>
