<svg width="24" height="24" viewBox="0 0 24 24" fill="none" xmlns="http://www.w3.org/2000/svg">
<path d="M20.0407 2.4165H3.74902C3.36777 2.4165 3.00214 2.56795 2.73256 2.83754C2.46297 3.10712 2.31152 3.47276 2.31152 3.854V20.1457C2.31152 20.5269 2.46297 20.8926 2.73256 21.1621C3.00214 21.4317 3.36777 21.5832 3.74902 21.5832H20.0407C20.4219 21.5832 20.7876 21.4317 21.0572 21.1621C21.3267 20.8926 21.4782 20.5269 21.4782 20.1457V3.854C21.4782 3.47276 21.3267 3.10712 21.0572 2.83754C20.7876 2.56795 20.4219 2.4165 20.0407 2.4165ZM8.06152 18.7082H5.18652V10.0832H8.06152V18.7082ZM6.62402 8.40609C6.29453 8.39667 5.97512 8.29036 5.7057 8.10045C5.43628 7.91054 5.2288 7.64544 5.10918 7.33829C4.98956 7.03113 4.96311 6.69554 5.03313 6.37343C5.10315 6.05133 5.26654 5.757 5.50288 5.52723C5.73922 5.29745 6.03803 5.14242 6.36198 5.0815C6.68593 5.02058 7.02065 5.05647 7.32431 5.18469C7.62798 5.31291 7.88712 5.52778 8.06937 5.80244C8.25162 6.0771 8.34889 6.39938 8.34902 6.729C8.34145 7.17976 8.15576 7.60918 7.83253 7.92344C7.5093 8.23769 7.07481 8.41122 6.62402 8.40609ZM18.6032 18.7082H15.7282V14.1657C15.7282 12.8048 15.1532 12.3161 14.4057 12.3161C14.1865 12.3307 13.9724 12.3884 13.7756 12.486C13.5789 12.5836 13.4033 12.7191 13.259 12.8847C13.1148 13.0504 13.0047 13.2429 12.935 13.4512C12.8654 13.6595 12.8376 13.8795 12.8532 14.0986C12.8484 14.1432 12.8484 14.1882 12.8532 14.2328V18.7082H9.97819V10.0832H12.7574V11.329C13.0377 10.9025 13.4228 10.5552 13.8759 10.3203C14.329 10.0854 14.8348 9.97073 15.3449 9.98734C16.8303 9.98734 18.5649 10.8115 18.5649 13.4948L18.6032 18.7082Z" fill="black"/>
</svg>
