<svg width="223" height="24" viewBox="0 0 223 24" fill="none" xmlns="http://www.w3.org/2000/svg">
<g clip-path="url(#clip0_222_1599)">
<path d="M218.068 7.03354C218.373 6.50941 218.752 6.05728 219.251 5.72429C219.985 5.23444 220.784 5.03002 221.653 5.13973C221.78 5.1558 221.906 5.17659 222.032 5.20102C222.264 5.24602 222.421 5.38594 222.5 5.61843V5.96107C222.485 6.04914 222.468 6.13699 222.455 6.22528C222.383 6.70205 222.318 7.18011 222.239 7.65581C222.18 8.01023 221.923 8.18316 221.558 8.13473C221.35 8.10709 221.142 8.07152 220.933 8.05845C220.464 8.02887 220.023 8.13944 219.614 8.38008C219.094 8.68543 218.737 9.14549 218.485 9.69855C218.26 10.1916 218.12 10.714 218.07 11.2553C218.023 11.7651 217.993 12.2785 217.989 12.7906C217.978 14.2387 217.974 15.687 217.992 17.1349C217.998 17.5564 217.705 18.0011 217.169 17.9897C216.793 17.9818 216.417 17.9816 216.04 17.9897C215.541 18.0004 215.224 17.5858 215.225 17.1459C215.231 13.4506 215.231 9.75533 215.225 6.05985C215.224 5.60129 215.582 5.2098 216.028 5.2278C216.411 5.24302 216.795 5.24409 217.178 5.2278C217.658 5.20702 218.02 5.62551 217.99 6.06757C217.968 6.38663 217.989 6.70891 217.991 7.0299V7.15632C217.999 7.1574 218.007 7.15868 218.015 7.15975C218.033 7.11775 218.051 7.07597 218.068 7.03397L218.068 7.03354Z" fill="#111323"/>
<path d="M152.58 8.84359C152.901 8.38632 153.208 7.9494 153.515 7.51248C154.893 5.55032 156.273 3.58987 157.646 1.62363C157.854 1.32514 158.109 1.18114 158.463 1.19528C158.812 1.20921 159.161 1.1955 159.51 1.19893C160.048 1.20428 160.343 1.51649 160.343 2.07898C160.344 7.08821 160.34 12.0972 160.348 17.1065C160.349 17.6627 159.969 18.0067 159.508 17.9906C159.145 17.9779 158.782 17.9889 158.42 17.9878C157.889 17.9863 157.578 17.6636 157.578 17.1105C157.577 13.7425 157.577 10.3746 157.577 7.00657C157.577 6.92236 157.577 6.83793 157.577 6.71172C157.521 6.77215 157.489 6.8015 157.463 6.83643C156.015 8.77138 154.568 10.7068 153.121 12.6419C153.075 12.7039 153.031 12.7686 152.979 12.8243C152.755 13.0623 152.39 13.0608 152.172 12.8174C152.083 12.7189 152.007 12.6074 151.928 12.5005C150.527 10.627 149.126 8.7536 147.726 6.88014C147.689 6.83172 147.651 6.78522 147.579 6.69458C147.579 6.81843 147.579 6.893 147.579 6.96757C147.579 10.3213 147.579 13.675 147.579 17.0287C147.579 17.093 147.582 17.1575 147.578 17.2213C147.549 17.6591 147.235 17.9788 146.813 17.9865C146.403 17.994 145.992 17.9925 145.581 17.9869C145.168 17.9812 144.876 17.7039 144.819 17.273C144.809 17.1956 144.804 17.117 144.804 17.039C144.804 12.0726 144.803 7.10621 144.805 2.14005C144.805 2.02669 144.813 1.9112 144.835 1.80041C144.896 1.48328 145.167 1.22143 145.483 1.2105C145.955 1.19421 146.427 1.19871 146.899 1.20943C147.141 1.21478 147.319 1.35921 147.459 1.55935C147.902 2.19297 148.348 2.82532 148.792 3.4583C150.021 5.20768 151.249 6.95707 152.478 8.70645C152.506 8.74653 152.536 8.7851 152.58 8.84402V8.84359Z" fill="#111323"/>
<path d="M119.366 23.5597C119.008 23.5608 118.65 23.5623 118.292 23.5625C118.157 23.5625 118.022 23.5599 117.887 23.5586C117.297 23.519 116.733 23.3596 116.19 23.1292C115.046 22.6447 114.143 21.8536 113.48 20.7685C113.409 20.6515 113.35 20.5139 113.329 20.3785C113.278 20.0545 113.396 19.7907 113.655 19.6026C113.824 19.4807 113.995 19.3628 114.168 19.2488C114.562 18.9902 115.006 19.0909 115.255 19.5017C115.872 20.5195 116.784 21.0376 117.901 21.2076C118.777 21.3408 119.607 21.1934 120.367 20.7136C121.405 20.0586 122.015 19.0853 122.229 17.8513C122.329 17.271 122.288 16.6781 122.281 16.0496C122.218 16.1231 122.174 16.1705 122.134 16.2215C121.448 17.0996 120.595 17.7193 119.531 17.9771C117.095 18.5668 114.744 17.4999 113.507 15.2973C113.165 14.6896 112.937 14.0369 112.794 13.3497C112.62 12.5086 112.594 11.6603 112.664 10.8051C112.746 9.80013 113.005 8.85087 113.493 7.98003C114.333 6.48242 115.571 5.54902 117.207 5.20703C117.732 5.0971 118.265 5.08253 118.799 5.14189C119.534 5.2231 120.23 5.42131 120.862 5.83294C121.35 6.15029 121.76 6.55442 122.114 7.02327C122.152 7.07298 122.193 7.11969 122.233 7.16769C122.245 7.17584 122.257 7.18376 122.268 7.19191C122.268 7.17969 122.268 7.16748 122.267 7.15505C122.268 6.79849 122.283 6.44128 122.268 6.08558C122.245 5.55802 122.655 5.20767 123.086 5.22781C123.468 5.2456 123.852 5.24131 124.235 5.2291C124.707 5.21388 125.034 5.62487 125.033 6.06286C125.025 9.81427 125.03 13.5655 125.026 17.3169C125.026 17.6496 124.966 17.9777 124.92 18.3079C124.839 18.886 124.679 19.4333 124.443 19.9562C123.649 21.7139 122.331 22.8256 120.544 23.3444C120.159 23.456 119.768 23.5419 119.366 23.5604L119.366 23.5597ZM118.592 7.60633C118.429 7.63011 118.195 7.64404 117.971 7.70018C117.035 7.93439 116.369 8.53352 115.922 9.40585C115.649 9.93834 115.501 10.5107 115.455 11.1143C115.415 11.62 115.425 12.1219 115.512 12.6207C115.589 13.0572 115.721 13.4746 115.917 13.8706C116.825 15.7057 119.055 16.2101 120.604 14.9229C121.478 14.1972 121.9 13.2218 121.995 12.0814C122.02 11.7781 122.014 11.4698 121.995 11.1655C121.955 10.4931 121.769 9.86184 121.424 9.29143C120.784 8.23502 119.874 7.65261 118.592 7.60654V7.60633Z" fill="#111323"/>
<path d="M62.9248 7.11566C63.2161 6.73702 63.5149 6.36696 63.8764 6.05582C64.4214 5.58655 65.0382 5.27842 65.7353 5.16442C66.1866 5.09049 66.6428 5.07463 67.0998 5.13763C67.7294 5.2242 68.3228 5.40891 68.8554 5.78176C69.2765 6.07661 69.6203 6.44796 69.8906 6.89409C69.9521 6.99544 70.0094 7.0998 70.0794 7.22151C70.2248 7.04773 70.3583 6.88166 70.4986 6.72202C71.1837 5.94183 72.0158 5.4237 73.014 5.21285C73.4698 5.11663 73.9322 5.07292 74.3968 5.10956C74.9464 5.15285 75.4889 5.23385 76.0012 5.46848C76.9925 5.92254 77.6378 6.70317 78.0016 7.7525C78.2512 8.47248 78.3266 9.22182 78.3276 9.98037C78.3313 12.3347 78.329 14.6892 78.3284 17.0435C78.3284 17.1217 78.3274 17.201 78.3173 17.2783C78.2645 17.685 77.979 17.9726 77.5875 17.9846C77.1568 17.9979 76.725 17.9964 76.2941 17.985C75.9118 17.975 75.63 17.6981 75.5723 17.2995C75.5592 17.2085 75.5544 17.1153 75.5542 17.0231C75.5532 14.9041 75.5577 12.7851 75.5505 10.6663C75.5487 10.1184 75.4813 9.57731 75.2605 9.06839C74.9288 8.30298 74.3623 7.87164 73.5682 7.75207C73.0483 7.67386 72.543 7.72335 72.0624 7.94578C71.3564 8.27234 70.9499 8.8644 70.7359 9.61888C70.6225 10.0187 70.5826 10.4301 70.5818 10.8439C70.5779 12.9344 70.5806 15.0247 70.5785 17.1153C70.5785 17.2278 70.5734 17.3458 70.541 17.4515C70.443 17.7705 70.1757 17.978 69.8442 17.9852C69.4201 17.9947 68.9953 17.9966 68.5713 17.9852C68.124 17.9735 67.8231 17.628 67.8229 17.1433C67.822 15.0457 67.8241 12.9482 67.8206 10.8506C67.8202 10.5804 67.8056 10.3089 67.7768 10.0404C67.7356 9.65573 67.6347 9.28524 67.4599 8.94132C67.0955 8.22434 66.5175 7.83157 65.7489 7.74243C64.9201 7.64621 64.1874 7.85814 63.6022 8.50526C63.235 8.91154 63.0252 9.40481 62.934 9.94801C62.8837 10.2482 62.8552 10.5564 62.8541 10.8611C62.8474 12.9302 62.8509 14.999 62.8498 17.0681C62.8498 17.1675 62.8517 17.2698 62.832 17.366C62.7594 17.7187 62.4674 17.976 62.1124 17.9848C61.6883 17.9951 61.2637 17.996 60.8395 17.9848C60.394 17.9732 60.0941 17.6375 60.0941 17.1678C60.0937 13.4577 60.0935 9.74788 60.0941 6.03783C60.0941 5.56127 60.4061 5.23492 60.8669 5.23085C61.2707 5.2272 61.6745 5.22699 62.0783 5.23085C62.5319 5.23513 62.8445 5.56598 62.8502 6.04447C62.8546 6.40103 62.8546 6.75759 62.8566 7.11416V7.22022C62.8919 7.16537 62.9084 7.13987 62.9246 7.11437L62.9248 7.11566Z" fill="#111323"/>
<path d="M83.0225 7.16641C83.193 6.96327 83.3567 6.75328 83.535 6.55785C84.2083 5.81987 85.0369 5.3761 85.9943 5.20553C87.5003 4.93704 88.9036 5.21453 90.1648 6.13572C91.222 6.90799 91.9109 7.96525 92.3008 9.24021C92.5204 9.95805 92.6317 10.695 92.628 11.4484C92.6262 11.8043 92.6206 12.1617 92.5873 12.5155C92.4551 13.9265 91.995 15.1994 91.0776 16.2671C90.2811 17.1943 89.2894 17.7729 88.1227 18.0302C87.6928 18.1251 87.2577 18.1431 86.821 18.1288C85.3097 18.0786 84.0923 17.4148 83.1377 16.2048C83.0995 16.1563 83.0548 16.1139 83.0131 16.0687C83.0057 16.0595 82.9983 16.0503 82.9911 16.0408C82.9911 16.0513 82.9911 16.0616 82.9911 16.0721C82.9892 16.1505 82.9857 16.2288 82.9857 16.3072C82.9855 18.3403 82.9808 20.3734 82.9903 22.4065C82.9917 22.7266 82.7859 23.1166 82.3739 23.1989C82.3207 23.2096 82.2652 23.2111 82.2108 23.2113C81.8139 23.2124 81.4169 23.2134 81.02 23.2113C80.555 23.2089 80.2379 22.8794 80.228 22.3919C80.2274 22.3634 80.228 22.3349 80.228 22.3064C80.228 16.9134 80.2284 11.5204 80.2266 6.12736C80.2266 5.86616 80.2787 5.63216 80.4663 5.44767C80.6057 5.3101 80.7719 5.23274 80.9654 5.23189C81.3965 5.23017 81.8277 5.22846 82.2588 5.23231C82.7115 5.23639 83.0069 5.66559 82.9901 6.02065C82.972 6.39757 82.9884 6.77642 82.9899 7.15441C82.9894 7.16641 82.989 7.17841 82.9888 7.19041C83.0003 7.18248 83.0116 7.17434 83.0231 7.16641H83.0225ZM89.8372 11.4769C89.8166 11.296 89.8002 10.9692 89.7398 10.6517C89.5847 9.83484 89.236 9.1215 88.6528 8.53866C87.3736 7.26026 85.2893 7.26455 84.0982 8.82215C83.5761 9.50507 83.3134 10.2973 83.263 11.1623C83.2331 11.6789 83.2269 12.1971 83.3388 12.7098C83.4272 13.115 83.5407 13.5093 83.7312 13.8747C84.2942 14.9544 85.1567 15.575 86.342 15.6294C87.4112 15.6785 88.2835 15.2212 88.9574 14.3649C89.5829 13.5702 89.8228 12.634 89.8372 11.4771V11.4769Z" fill="#111323"/>
<path d="M103.421 7.07276C103.423 6.75177 103.439 6.43013 103.424 6.11C103.401 5.58051 103.788 5.20274 104.263 5.22695C104.638 5.24624 105.016 5.22909 105.392 5.23124C105.869 5.23424 106.176 5.54623 106.191 6.03907C106.193 6.10314 106.191 6.16743 106.191 6.23171C106.191 9.23549 106.191 12.2395 106.191 15.2433C106.191 15.3003 106.189 15.3577 106.192 15.4145C106.209 15.7089 106.407 15.9095 106.689 15.9446C106.801 15.9585 106.92 15.9885 107.016 16.0462C107.166 16.1362 107.245 16.2911 107.249 16.4741C107.254 16.7951 107.258 17.1165 107.249 17.4373C107.24 17.7422 107.035 17.9698 106.746 17.9831C106.404 17.9989 106.055 18.0336 105.721 17.9824C105.146 17.8946 104.622 17.6608 104.194 17.2279C103.869 16.8992 103.639 16.511 103.491 16.0601C103.467 16.0743 103.444 16.0798 103.435 16.0946C102.922 16.9588 102.171 17.508 101.261 17.8191C99.8865 18.2893 98.5168 18.2693 97.183 17.6554C95.7864 17.0128 94.8407 15.9114 94.2716 14.4468C94.1173 14.0497 94.0068 13.6387 93.9304 13.2177C93.6574 11.7115 93.7283 10.2268 94.2771 8.79879C94.9905 6.94312 96.2786 5.73758 98.1555 5.25288C98.8132 5.08295 99.4833 5.0656 100.153 5.16031C100.841 5.25781 101.495 5.46673 102.084 5.86636C102.543 6.17685 102.934 6.5602 103.269 7.00762C103.299 7.04683 103.331 7.08412 103.361 7.12247C103.377 7.14112 103.392 7.15976 103.407 7.1784C103.412 7.14326 103.416 7.1079 103.421 7.07276H103.421ZM96.5807 11.6969C96.6076 11.9779 96.6226 12.2609 96.6643 12.5395C96.735 13.0137 96.8775 13.465 97.0924 13.892C97.8351 15.3676 99.4479 16.0168 100.937 15.4183C101.816 15.0648 102.427 14.4033 102.813 13.5155C103.161 12.7156 103.245 11.8737 103.147 11.0078C103.049 10.1344 102.747 9.34863 102.163 8.70665C101.31 7.76982 100.267 7.41218 99.0548 7.72353C98.1533 7.95517 97.5169 8.56072 97.0854 9.40542C96.72 10.1207 96.5865 10.8917 96.5807 11.6969Z" fill="#111323"/>
<path d="M54.9954 7.07262C54.9989 6.70899 54.9939 6.34493 55.0081 5.98172C55.0225 5.61445 55.2585 5.3271 55.5927 5.2491C55.6652 5.23217 55.7422 5.23174 55.817 5.23131C56.1865 5.2296 56.5571 5.2476 56.9256 5.22617C57.3768 5.19981 57.7741 5.55059 57.7708 6.10236C57.7579 8.27838 57.7655 10.4544 57.7655 12.6304C57.7655 13.5293 57.7665 14.4282 57.7644 15.3273C57.764 15.4986 57.7993 15.6531 57.9175 15.7773C58.0179 15.8832 58.1405 15.9323 58.2841 15.943C58.6284 15.9689 58.8204 16.1813 58.8249 16.5374C58.8286 16.8228 58.8286 17.1082 58.8249 17.3934C58.8202 17.7532 58.6051 17.9799 58.2601 17.9866C57.9454 17.9926 57.6272 18.0215 57.3171 17.9836C56.9814 17.9426 56.653 17.8374 56.351 17.6647C55.771 17.3328 55.3553 16.8505 55.1186 16.2035C55.102 16.1579 55.0839 16.1127 55.0648 16.0623C55.0451 16.0726 55.0202 16.0767 55.0116 16.091C54.4607 17.018 53.6453 17.5766 52.663 17.8758C51.3104 18.2878 49.9733 18.2409 48.6805 17.6195C47.4008 17.0043 46.5028 15.9948 45.9324 14.6607C45.7315 14.1908 45.5951 13.6995 45.5004 13.1942C45.1909 11.5427 45.4039 9.68427 46.0119 8.40202C46.8312 6.67428 48.1347 5.5883 49.9538 5.20431C50.5735 5.0736 51.2008 5.07682 51.8277 5.17817C52.4116 5.27245 52.9681 5.44559 53.483 5.75437C54.0246 6.07922 54.4728 6.51271 54.8574 7.02205C54.8826 7.05569 54.9097 7.08784 54.9358 7.12062C54.9508 7.13884 54.9658 7.15684 54.9808 7.17505C54.9855 7.14076 54.9903 7.10648 54.9952 7.07219L54.9954 7.07262ZM48.1739 11.7028C48.184 11.9769 48.1856 12.3296 48.261 12.6797C48.3498 13.0922 48.4664 13.4918 48.6546 13.8666C49.4271 15.4062 51.0044 15.959 52.3907 15.4619C53.452 15.0814 54.129 14.2847 54.5082 13.2032C54.7616 12.4802 54.8142 11.7307 54.7191 10.9697C54.6014 10.0282 54.2545 9.1955 53.5826 8.54152C52.7442 7.72532 51.7527 7.4324 50.6322 7.72125C49.8075 7.93382 49.195 8.46459 48.762 9.21778C48.3374 9.95662 48.1602 10.7657 48.1739 11.7026V11.7028Z" fill="#111323"/>
<path d="M39.3966 0.996582C39.7544 1.03815 40.1116 1.09172 40.4705 1.11936C41.3432 1.18643 42.1531 1.47721 42.9367 1.85863C43.4901 2.12798 44.003 2.46997 44.4789 2.86961C44.8476 3.17924 44.8805 3.67637 44.5504 4.03294C44.2464 4.36164 43.9352 4.68328 43.6213 5.00191C43.3231 5.30469 42.9546 5.32847 42.6175 5.0692C41.9699 4.57099 41.258 4.22279 40.4663 4.06143C39.0881 3.78051 37.7875 4.00294 36.5877 4.7647C35.3804 5.5314 34.5651 6.63087 34.1841 8.05176C33.3571 11.1361 35.1144 14.2807 38.0991 15.0446C39.7109 15.4573 41.2039 15.135 42.5576 14.1311C42.7169 14.0128 42.8755 13.9175 43.0811 13.92C43.2693 13.9224 43.4357 13.9762 43.5677 14.1103C43.9108 14.4587 44.2585 14.8033 44.5826 15.1704C44.8842 15.5119 44.8336 15.9939 44.484 16.2842C43.427 17.1621 42.2334 17.7321 40.9043 17.992C40.1137 18.1467 39.3188 18.1682 38.5195 18.0857C36.561 17.8836 34.88 16.9367 33.7065 15.7558C32.5125 14.5543 31.7338 13.1103 31.3641 11.425C31.1723 10.5505 31.1345 9.66637 31.2137 8.77582C31.3824 6.88265 32.0884 5.23183 33.3117 3.82873C34.5526 2.40569 36.0886 1.51857 37.9041 1.16308C38.3963 1.06687 38.8927 1.02101 39.3966 0.996796V0.996582Z" fill="#111323"/>
<path d="M201.05 11.6342C201.067 11.2929 201.047 10.9444 201.108 10.6119C201.272 9.72046 201.541 8.86463 202.027 8.0975C203.025 6.52019 204.424 5.57478 206.2 5.22786C206.821 5.10636 207.448 5.07529 208.078 5.14322C210.089 5.35986 211.694 6.29819 212.827 8.06193C213.254 8.72577 213.541 9.45668 213.686 10.2418C213.987 11.8697 213.81 13.4303 213.011 14.8801C212.139 16.4615 210.837 17.4832 209.144 17.9227C207.274 18.4078 205.484 18.1678 203.852 17.0669C202.33 16.0407 201.434 14.5649 201.138 12.699C201.107 12.5095 201.085 12.318 201.072 12.1264C201.061 11.9633 201.07 11.7988 201.07 11.6348C201.063 11.6348 201.057 11.6346 201.05 11.6344V11.6342ZM211.029 11.5691C211.006 11.3282 210.995 11.0854 210.957 10.8471C210.819 9.97739 210.464 9.21755 209.842 8.61285C209.347 8.13222 208.773 7.82151 208.091 7.70473C207.708 7.63916 207.336 7.61087 206.955 7.6668C205.898 7.82194 205.068 8.36343 204.493 9.29726C203.84 10.3571 203.708 11.5204 203.985 12.7275C204.471 14.8424 206.338 15.9755 208.228 15.539C209.092 15.3398 209.783 14.8531 210.298 14.1038C210.818 13.3474 211.021 12.4909 211.028 11.5691H211.029Z" fill="#111323"/>
<path d="M168.148 5.08447C168.431 5.11961 168.713 5.16826 168.997 5.1869C169.541 5.22247 170.061 5.36411 170.56 5.57603C172.633 6.45565 173.917 8.0394 174.39 10.3206C174.521 10.9536 174.548 11.601 174.486 12.2492C174.357 13.6178 173.89 14.8407 173.023 15.8846C172.151 16.9361 171.058 17.6246 169.763 17.9449C168.203 18.3309 166.677 18.2081 165.229 17.4705C163.426 16.5519 162.298 15.0507 161.882 13.0049C161.561 11.4263 161.753 9.89807 162.505 8.47675C163.377 6.82807 164.717 5.79417 166.459 5.32211C167.012 5.17254 167.575 5.11169 168.147 5.08447H168.148ZM171.73 11.626C171.69 11.2947 171.67 10.9592 171.605 10.6333C171.449 9.85393 171.107 9.16973 170.544 8.62546C169.724 7.83133 168.747 7.51184 167.638 7.66998C166.54 7.82619 165.697 8.40796 165.124 9.39172C164.566 10.3476 164.436 11.3912 164.623 12.4808C164.995 14.6394 166.771 15.8482 168.578 15.6003C169.408 15.4863 170.12 15.1242 170.69 14.4824C171.402 13.679 171.703 12.7103 171.73 11.626Z" fill="#111323"/>
<path d="M129.703 7.19435C129.907 6.94279 130.071 6.72508 130.251 6.52323C130.855 5.8461 131.585 5.39204 132.459 5.21226C132.97 5.10726 133.485 5.07833 134.005 5.14176C134.664 5.22211 135.288 5.4004 135.852 5.77582C136.603 6.2753 137.098 6.98221 137.395 7.84726C137.569 8.35168 137.661 8.87452 137.691 9.4083C137.707 9.68558 137.711 9.96393 137.711 10.2416C137.713 12.5179 137.713 14.7942 137.71 17.0703C137.71 17.1972 137.701 17.3294 137.667 17.4498C137.577 17.7614 137.298 17.9778 136.97 17.9853C136.546 17.9947 136.121 17.9954 135.697 17.9855C135.282 17.9759 134.978 17.6619 134.947 17.2302C134.942 17.1663 134.946 17.1018 134.946 17.0375C134.946 14.8112 134.947 12.585 134.945 10.3586C134.944 9.15137 134.208 8.10226 133.119 7.74312C131.56 7.22928 129.922 8.31804 129.722 10.0034C129.704 10.1585 129.703 10.3166 129.703 10.4733C129.702 12.6424 129.703 14.8118 129.702 16.981C129.702 17.0943 129.696 17.2098 129.676 17.3208C129.602 17.7305 129.313 17.9832 128.913 17.9872C128.516 17.9913 128.119 17.9919 127.722 17.9872C127.275 17.9819 126.962 17.6649 126.937 17.2004C126.934 17.1434 126.936 17.0862 126.936 17.0292C126.936 13.4115 126.936 9.79379 126.937 6.17609C126.937 6.08395 126.94 5.99031 126.954 5.89967C127.019 5.49918 127.304 5.23797 127.69 5.23261C128.107 5.22683 128.525 5.22704 128.942 5.23261C129.377 5.23819 129.692 5.56411 129.701 6.01624C129.707 6.32287 129.702 6.62994 129.703 6.93679C129.703 7.00664 129.703 7.0765 129.703 7.19478V7.19435Z" fill="#111323"/>
<path d="M178.678 7.16761C179.303 6.23356 180.104 5.54893 181.181 5.2633C181.369 5.21337 181.555 5.13344 181.756 5.15187C181.783 5.14973 181.81 5.1478 181.838 5.14566C182.704 5.04409 183.544 5.15058 184.34 5.53093C185.448 6.0602 186.101 6.98997 186.424 8.18715C186.566 8.71235 186.637 9.25427 186.638 9.80175C186.64 12.2343 186.639 14.6668 186.638 17.0993C186.638 17.1775 186.639 17.2574 186.625 17.3335C186.556 17.7115 186.264 17.9772 185.89 17.9856C185.466 17.9952 185.042 17.9982 184.618 17.9849C184.132 17.9697 183.874 17.5469 183.876 17.1593C183.886 14.9123 183.892 12.6652 183.877 10.418C183.869 9.21548 183.329 8.34101 182.272 7.83295C182.074 7.73759 181.859 7.70609 181.644 7.66281C181.116 7.55674 180.619 7.63152 180.151 7.87216C179.168 8.37808 178.641 9.21441 178.634 10.3612C178.62 12.5797 178.631 14.7983 178.627 17.0168C178.626 17.1704 178.603 17.3314 178.554 17.4758C178.446 17.7974 178.211 17.9733 177.887 17.9841C177.464 17.998 177.039 17.9961 176.615 17.9851C176.172 17.9736 175.873 17.6369 175.873 17.1638C175.871 15.7656 175.872 14.3674 175.872 12.9692C175.872 10.6794 175.872 8.38943 175.871 6.09963C175.871 5.93314 175.883 5.77264 175.968 5.62564C176.109 5.38115 176.315 5.2393 176.588 5.23351C177.025 5.22408 177.464 5.22323 177.901 5.23308C178.308 5.24208 178.621 5.57915 178.628 6.00578C178.634 6.39084 178.628 6.77612 178.628 7.16139C178.626 7.18282 178.623 7.20425 178.621 7.22568C178.64 7.20618 178.659 7.18668 178.678 7.16718L178.678 7.16761Z" fill="#111323"/>
<path d="M197.159 5.22431C197.994 5.22645 198.828 5.23095 199.663 5.22924C199.911 5.22881 200.117 5.31152 200.283 5.50437C200.419 5.66208 200.466 5.85236 200.47 6.05593C200.476 6.29828 200.477 6.54106 200.47 6.78341C200.456 7.30026 200.147 7.61311 199.647 7.61503C198.887 7.61782 198.128 7.61611 197.368 7.61632C197.293 7.61632 197.218 7.61632 197.127 7.61632C197.122 7.67503 197.113 7.72903 197.113 7.78303C197.113 9.88041 197.112 11.9776 197.115 14.0749C197.115 14.2376 197.133 14.403 197.165 14.5624C197.277 15.1307 197.678 15.4883 198.257 15.5539C198.675 15.6011 199.088 15.5567 199.502 15.4982C199.834 15.4511 199.971 15.5449 200.037 15.8888C200.119 16.3148 200.197 16.7415 200.269 17.1694C200.314 17.4389 200.213 17.6371 199.959 17.7216C199.609 17.8386 199.253 17.9446 198.894 18.0258C198.346 18.1495 197.79 18.1756 197.23 18.1242C196.799 18.0848 196.385 17.9821 195.992 17.7989C195.23 17.4436 194.767 16.8184 194.534 15.9968C194.41 15.5569 194.355 15.1058 194.355 14.6469C194.356 12.3926 194.355 10.1384 194.355 7.88417V7.63732C194.3 7.62939 194.256 7.61803 194.211 7.61761C193.986 7.61568 193.76 7.61161 193.534 7.61761C193.033 7.63132 192.699 7.23962 192.711 6.7847C192.718 6.54235 192.708 6.29957 192.713 6.05722C192.724 5.54766 193.03 5.23438 193.515 5.23117C193.788 5.22945 194.06 5.23074 194.344 5.23074C194.348 5.15081 194.355 5.08867 194.355 5.02631C194.356 4.50561 194.358 3.9847 194.355 3.464C194.35 2.95272 194.558 2.5548 194.948 2.26038C195.369 1.94282 195.799 1.63833 196.223 1.32505C196.413 1.18448 196.615 1.15255 196.822 1.26141C197.031 1.37198 197.114 1.56783 197.113 1.80889C197.112 2.85758 197.113 3.90627 197.113 4.95474C197.113 5.03296 197.118 5.11117 197.121 5.18959C197.134 5.20117 197.147 5.21274 197.159 5.22431H197.159Z" fill="#111323"/>
<path d="M111.31 11.6143C111.31 13.4267 111.31 15.2391 111.31 17.0514C111.31 17.1084 111.313 17.1659 111.31 17.2226C111.284 17.6489 110.976 17.9743 110.565 17.9853C110.141 17.9964 109.716 17.9962 109.292 17.9853C108.887 17.9748 108.603 17.6924 108.553 17.2709C108.542 17.1794 108.536 17.0864 108.536 16.9942C108.535 13.3982 108.535 9.8019 108.536 6.20585C108.536 6.10642 108.542 6.00614 108.555 5.90779C108.607 5.52465 108.896 5.24202 109.264 5.23388C109.702 5.22402 110.141 5.22445 110.579 5.23323C110.974 5.24116 111.281 5.56558 111.309 5.98493C111.313 6.04878 111.31 6.11328 111.31 6.17757C111.31 7.98995 111.31 9.80233 111.31 11.6147V11.6143Z" fill="#111323"/>
<path d="M191.312 11.6227C191.312 13.4349 191.313 15.247 191.31 17.0592C191.31 17.1929 191.299 17.3326 191.261 17.4595C191.17 17.7672 190.884 17.9804 190.558 17.9862C190.141 17.9937 189.723 17.995 189.306 17.9862C188.862 17.977 188.55 17.6427 188.547 17.1779C188.543 16.5286 188.546 15.8794 188.546 15.2301C188.546 12.2051 188.546 9.1799 188.547 6.15491C188.547 6.04862 188.548 5.93977 188.57 5.83691C188.642 5.49407 188.919 5.24293 189.254 5.235C189.705 5.22429 190.157 5.223 190.608 5.23564C190.949 5.24529 191.231 5.51764 191.289 5.86713C191.306 5.9717 191.311 6.07948 191.311 6.18598C191.312 7.99815 191.312 9.81032 191.312 11.6225L191.312 11.6227Z" fill="#111323"/>
<path d="M191.486 2.08794C191.486 2.25872 191.494 2.43014 191.485 2.60049C191.464 2.98406 191.284 3.26112 190.943 3.40897C190.806 3.46833 190.658 3.51461 190.512 3.53433C190.029 3.59861 189.544 3.6179 189.069 3.47819C188.56 3.3284 188.341 3.01427 188.34 2.46335C188.34 2.19979 188.339 1.93644 188.34 1.67287C188.343 1.16696 188.56 0.859252 189.028 0.715255C189.372 0.609401 189.728 0.583901 190.083 0.612401C190.339 0.632972 190.601 0.663614 190.847 0.738398C191.276 0.869109 191.469 1.15582 191.488 1.61802C191.494 1.77444 191.489 1.9313 191.489 2.08794C191.488 2.08794 191.487 2.08794 191.486 2.08794H191.486Z" fill="#111323"/>
<path d="M111.482 2.09248C111.482 2.25662 111.486 2.42076 111.481 2.58468C111.47 2.96182 111.306 3.24852 110.971 3.39059C110.767 3.47716 110.543 3.53738 110.324 3.5558C109.998 3.58302 109.665 3.59266 109.341 3.55323C109.097 3.52345 108.85 3.43923 108.65 3.26352C108.462 3.09789 108.355 2.88746 108.35 2.63204C108.343 2.26841 108.34 1.90413 108.351 1.54071C108.361 1.18693 108.535 0.926797 108.844 0.7918C109.016 0.716373 109.209 0.679089 109.397 0.655946C109.645 0.625518 109.898 0.604519 110.147 0.618876C110.389 0.632804 110.635 0.66966 110.866 0.743587C111.285 0.877941 111.479 1.18436 111.482 1.64314C111.482 1.79292 111.482 1.9427 111.482 2.09248H111.482Z" fill="#111323"/>
<path d="M0.703125 17.557C1.00425 17.3365 1.28914 17.1276 1.57445 16.9193C6.00253 13.688 10.4306 10.4568 14.8585 7.22526C16.9602 5.69123 19.0608 4.15526 21.1638 2.62294C21.2856 2.53423 21.417 2.44638 21.5567 2.39988C22.0836 2.22417 22.618 2.6283 22.6382 3.20429C22.6396 3.24714 22.6386 3.29 22.6386 3.33264C22.6386 7.87046 22.6386 12.4083 22.6379 16.9461C22.6379 17.0384 22.64 17.1329 22.623 17.2227C22.5447 17.6391 22.2296 17.917 21.8149 17.9423C21.7672 17.9453 21.7192 17.9429 21.6711 17.9429C14.9567 17.9429 8.24246 17.9425 1.52803 17.9444C1.20369 17.9444 0.920853 17.8662 0.70333 17.557H0.703125Z" fill="#735AFA"/>
<path d="M0.538086 17.0526C0.541578 16.9888 0.547945 16.9249 0.547945 16.8611C0.548356 12.322 0.548356 7.78285 0.548356 3.24375C0.548356 3.20818 0.54548 3.17261 0.544043 3.13725C0.553902 3.11111 0.568691 3.08582 0.57321 3.05861C0.669544 2.47855 1.3558 2.13228 1.89293 2.52227C2.34214 2.8484 2.79116 3.17496 3.23976 3.50196C5.03416 4.81014 6.82836 6.11875 8.62277 7.42693C9.16667 7.82356 9.71079 8.21977 10.2545 8.6164C10.2874 8.6404 10.3182 8.6674 10.3962 8.7304C10.3401 8.76297 10.295 8.78097 10.2594 8.8114C7.08244 11.5231 3.90629 14.2361 0.728495 16.947C0.673858 16.9935 0.601966 17.0179 0.538086 17.0526Z" fill="#735AFA"/>
</g>
<defs>
<clipPath id="clip0_222_1599">
<rect width="222" height="23" fill="white" transform="translate(0.5 0.601074)"/>
</clipPath>
</defs>
</svg>
