<svg width="155" height="40" viewBox="0 0 155 40" fill="none" xmlns="http://www.w3.org/2000/svg">
<g clip-path="url(#clip0_222_1586)">
<path d="M18.0476 39.6006C17.8307 39.5723 17.6134 39.5474 17.3973 39.5146C16.8239 39.4274 16.2456 39.3613 15.6784 39.2434C12.9617 38.6794 10.491 37.5473 8.26336 35.8761C6.25716 34.3706 4.60906 32.53 3.30842 30.37C2.32087 28.73 1.57684 26.9844 1.11519 25.1197C0.958031 24.4843 0.821338 23.8427 0.708791 23.1977C0.624073 22.7114 0.563093 22.2163 0.545086 21.7234C0.509071 20.7325 0.494747 19.7399 0.501704 18.7481C0.504569 18.3361 0.568823 17.9221 0.634714 17.5138C0.75381 16.775 0.840164 16.0241 1.04111 15.3073C1.32146 14.3073 1.65951 13.3197 2.03644 12.352C2.58608 10.9416 3.35467 9.64631 4.23581 8.42366C5.00441 7.35757 5.88023 6.38493 6.84854 5.4995C8.17087 4.29013 9.63439 3.28925 11.2313 2.49394C12.34 1.942 13.4921 1.49679 14.6933 1.19736C15.3481 1.03414 16.0099 0.894602 16.6741 0.775825C17.0883 0.701901 17.5119 0.664108 17.9322 0.649157C18.7601 0.61967 19.5905 0.57897 20.4172 0.613025C21.4068 0.653725 22.394 0.766688 23.3643 0.985969C25.0022 1.35642 26.5742 1.91251 28.0639 2.70035C29.4582 3.43793 30.7429 4.33457 31.9208 5.39318C33.1903 6.53361 34.29 7.8198 35.2239 9.25385C36.245 10.8225 37.0361 12.5024 37.5632 14.3044C37.7437 14.9211 37.8767 15.5532 38.0114 16.1828C38.1121 16.655 38.2066 17.1313 38.2561 17.6106C38.3224 18.2527 38.3556 18.8993 38.3785 19.5447C38.3981 20.1016 38.4043 20.6614 38.3769 21.2175C38.3519 21.725 38.2582 22.2288 38.223 22.7363C38.1604 23.6371 37.952 24.5084 37.7188 25.3726C37.2006 27.2926 36.4079 29.0917 35.3405 30.7654C34.646 31.8543 33.8586 32.866 32.9676 33.7967C31.604 35.2212 30.0627 36.4036 28.3413 37.3492C26.9044 38.1387 25.3934 38.7317 23.8026 39.1034C23.1261 39.2617 22.4361 39.3601 21.751 39.4797C21.4727 39.5283 21.1915 39.5603 20.9116 39.5997H18.0476V39.6006ZM29.2229 20.2237C29.2073 20.0696 29.1947 19.9151 29.1758 19.7611C29.1226 19.32 29.0911 18.8748 29.0089 18.4391C28.6782 16.687 27.9174 15.1553 26.6728 13.8837C25.3591 12.5414 23.7507 11.712 21.9957 11.1435C21.6524 11.0322 21.3041 10.9375 20.9509 10.8328C20.8744 8.92991 21.4379 7.23464 22.5536 5.73331C23.6745 4.22534 25.1409 3.21865 26.9715 2.76389C26.7227 2.70824 26.4722 2.6393 26.223 2.64262C25.4867 2.653 24.7484 2.66255 24.0163 2.72983C23.4539 2.78133 22.8933 2.89346 22.342 3.02262C20.3075 3.49856 18.4069 4.30674 16.6283 5.41644C15.213 6.29979 13.9284 7.3422 12.8336 8.61179C11.2858 10.4059 10.1333 12.4326 9.42198 14.7093C9.01354 16.0175 8.73074 17.3506 8.71273 18.7311C8.71273 19.0924 8.71273 19.4537 8.71273 19.815C8.78271 20.4858 8.81996 21.1619 8.92964 21.8255C9.18011 23.341 9.72197 24.7543 10.5254 26.0558C11.4474 27.5501 12.6425 28.7698 14.1355 29.6922C15.396 30.4709 16.7551 30.9506 18.2121 31.1279C18.7413 31.1923 19.2868 31.1707 19.8201 31.13C20.4078 31.0847 20.9971 31.0038 21.5742 30.8817C22.4905 30.6881 23.3496 30.3202 24.1599 29.8492C25.1364 29.2815 25.984 28.5506 26.7153 27.6813C27.5028 26.7456 28.113 25.7041 28.5464 24.5566C28.9417 23.5108 29.1775 22.4298 29.2225 21.3085C29.2225 20.9472 29.2225 20.5858 29.2225 20.2245L29.2229 20.2237Z" fill="#FF0E00"/>
<path d="M154.5 21.5548C154.138 21.5448 153.776 21.5269 153.413 21.5265C151.586 21.5232 149.76 21.5245 147.933 21.5245C146.992 21.5245 146.051 21.5245 145.095 21.5245C145.065 22.0764 145.226 22.5743 145.437 23.0515C145.86 24.0059 146.669 24.444 147.617 24.7078C148.236 24.8801 148.864 24.8672 149.485 24.822C150.495 24.7489 151.758 24.4702 152.924 23.6184C153.037 23.9382 153.15 24.2509 153.257 24.5653C153.46 25.1617 153.656 25.7606 153.864 26.3549C153.912 26.4915 153.886 26.5463 153.761 26.6227C152.753 27.2424 151.64 27.5335 150.494 27.7403C149.605 27.9006 148.708 27.9559 147.815 27.8931C145.631 27.7399 143.776 26.9238 142.515 25.0101C142.075 24.341 141.742 23.6184 141.578 22.8293C141.482 22.3638 141.402 21.8895 141.374 21.4152C141.34 20.8197 141.317 20.2154 141.376 19.6236C141.533 18.0508 142.052 16.6168 143.122 15.4311C144.073 14.3783 145.261 13.7529 146.632 13.463C147.284 13.3251 147.942 13.2919 148.6 13.3459C149.55 13.4244 150.478 13.6058 151.333 14.076C152.292 14.6026 153.016 15.3568 153.534 16.3215C153.882 16.9711 154.134 17.66 154.278 18.3843C154.358 18.7876 154.4 19.1987 154.461 19.6057C154.465 19.6344 154.487 19.6602 154.5 19.6871V21.5539V21.5548ZM150.691 18.9462C150.644 17.5176 149.643 16.0948 147.897 16.2032C146.325 16.3008 145.256 17.5089 145.188 18.9462H150.691H150.691Z" fill="#FF0E00"/>
<path d="M83.2571 13.4279V7.91602H86.7715V27.6625H83.5375C83.4908 27.3136 83.445 26.9685 83.4 26.6313C83.1106 26.863 82.8393 27.0998 82.5483 27.3091C81.803 27.8444 80.9603 28.0184 80.0592 27.9956C78.4287 27.9536 77.1468 27.2244 76.1384 25.9651C75.2802 24.8932 74.8431 23.6332 74.5959 22.291C74.4609 21.5584 74.4105 20.8166 74.4433 20.0815C74.4727 19.4237 74.5926 18.7625 74.7424 18.1196C74.9802 17.1009 75.4108 16.1611 76.0627 15.3388C76.9991 14.158 78.1884 13.3843 79.6728 13.1464C80.2384 13.0558 80.8257 13.0243 81.3962 13.067C81.9704 13.1098 82.5356 13.2784 83.1045 13.3922C83.1495 13.4014 83.1941 13.4138 83.2567 13.4288L83.2571 13.4279ZM83.2584 20.0919C83.2584 18.9789 83.253 17.8659 83.2637 16.7529C83.2653 16.5735 83.2076 16.4837 83.048 16.4472C82.6269 16.35 82.2086 16.2354 81.783 16.1635C80.9996 16.0319 80.2605 16.1714 79.5885 16.6146C78.5019 17.331 78.1152 18.454 77.9158 19.6629C77.8053 20.3324 77.8807 21.0093 77.9883 21.6813C78.0943 22.3416 78.3001 22.9613 78.6542 23.5227C79.7457 25.2546 81.7596 25.1761 82.9903 23.9555C83.1405 23.8064 83.2694 23.6461 83.2657 23.389C83.2498 22.2901 83.2588 21.1908 83.2588 20.0915L83.2584 20.0919Z" fill="#FF0E00"/>
<path d="M139.19 27.9857H135.631V27.7382C135.631 25.0279 135.638 22.3172 135.625 19.6069C135.622 18.9404 135.534 18.2792 135.237 17.6658C134.919 17.0084 134.447 16.5308 133.722 16.3792C132.94 16.216 132.199 16.3464 131.539 16.8144C131.196 17.0574 130.878 17.3373 130.548 17.5989C130.432 17.6903 130.393 17.8003 130.393 17.9536C130.399 21.2171 130.398 24.4805 130.398 27.744C130.398 27.8183 130.398 27.8927 130.398 27.9803H126.856V13.5638H130.082C130.133 13.9168 130.185 14.2798 130.24 14.6602C130.535 14.4605 130.798 14.2698 131.073 14.0991C131.714 13.7013 132.402 13.4126 133.146 13.3063C133.631 13.237 134.128 13.2029 134.618 13.2162C135.47 13.2391 136.276 13.4583 137.004 13.9305C137.808 14.4526 138.32 15.2063 138.656 16.093C138.888 16.7027 139.007 17.3369 139.084 17.9876C139.197 18.9549 139.188 19.9225 139.188 20.891C139.19 23.1727 139.188 25.4544 139.188 27.7361C139.188 27.8113 139.188 27.8864 139.188 27.9857H139.19Z" fill="#FF0E00"/>
<path d="M73.4451 20.5327C73.4217 21.9244 73.1324 23.2459 72.5046 24.4831C71.8931 25.6875 71.0177 26.6327 69.8276 27.2719C68.9207 27.759 67.9564 27.9721 66.9353 27.9891C66.01 28.0049 65.1072 27.9044 64.2453 27.5493C62.9954 27.0343 62.0144 26.1913 61.2937 25.0346C60.6753 24.0421 60.3208 22.9544 60.1526 21.799C60.0311 20.9617 60.0258 20.1232 60.1535 19.2881C60.4223 17.528 61.089 15.9619 62.4236 14.7563C63.3359 13.9323 64.4106 13.431 65.6277 13.2662C66.7237 13.1175 67.8083 13.1603 68.8695 13.5033C69.8792 13.8293 70.7452 14.39 71.4675 15.1732C72.532 16.3269 73.1 17.7178 73.3235 19.2636C73.3841 19.6834 73.4058 20.1095 73.4451 20.5323V20.5327ZM69.8984 20.3903C69.8792 20.183 69.8652 19.818 69.8088 19.4596C69.6602 18.5114 69.3414 17.6489 68.624 16.9673C67.7158 16.1043 66.3104 16.0603 65.4063 16.5728C64.6144 17.0222 64.138 17.7352 63.8741 18.5974C63.635 19.379 63.5606 20.181 63.6146 20.9995C63.6629 21.7272 63.7987 22.4274 64.109 23.0885C64.7662 24.4893 65.9597 25.0774 67.4015 24.7842C68.3145 24.5986 68.919 23.9756 69.3385 23.1616C69.7601 22.3439 69.8792 21.456 69.8984 20.3899V20.3903Z" fill="#FF0E00"/>
<path d="M118.057 28.0298C117.029 28.0248 116.059 27.8002 115.15 27.3371C113.65 26.5738 112.655 25.3465 112.039 23.7842C111.765 23.0898 111.574 22.3713 111.502 21.6267C111.454 21.1312 111.394 20.6283 111.426 20.1349C111.532 18.511 111.981 16.9927 112.956 15.6745C113.806 14.5245 114.935 13.7712 116.302 13.4028C116.841 13.2579 117.394 13.1802 117.958 13.2138C118.335 13.2367 118.716 13.2184 119.092 13.2558C120.132 13.3596 121.073 13.7375 121.918 14.3563C123.317 15.3801 124.15 16.7834 124.536 18.4654C124.653 18.9737 124.723 19.5007 124.746 20.0219C124.772 20.6262 124.782 21.2425 124.695 21.8381C124.436 23.6218 123.755 25.2124 122.399 26.4351C121.59 27.1647 120.65 27.6652 119.574 27.8546C119.073 27.9426 118.563 27.9729 118.057 28.0298ZM114.945 20.4327C114.974 20.8422 114.992 21.1349 115.018 21.4269C115.077 22.096 115.274 22.7268 115.593 23.3107C116.257 24.5242 117.352 25.0263 118.606 24.8266C119.492 24.6854 120.128 24.1505 120.588 23.3905C121 22.7106 121.161 21.951 121.235 21.1702C121.316 20.3147 121.24 19.4712 120.999 18.6452C120.792 17.935 120.428 17.3266 119.861 16.8523C119.454 16.5126 118.989 16.3403 118.462 16.2775C117.951 16.2165 117.463 16.2559 117.001 16.4665C115.887 16.9753 115.367 17.9496 115.107 19.0892C115 19.5622 114.987 20.0581 114.944 20.4331L114.945 20.4327Z" fill="#FF0E00"/>
<path d="M101.165 27.6558C100.116 27.6558 99.0929 27.6541 98.0694 27.6583C97.9617 27.6587 97.9318 27.6218 97.9192 27.5192C97.8836 27.2347 97.8349 26.9523 97.796 26.6998C97.442 26.9481 97.11 27.2226 96.7417 27.4311C95.9408 27.8838 95.0654 28.0321 94.1548 27.9893C92.8545 27.9282 91.7618 27.4087 90.8942 26.4294C90.4112 25.8841 90.0941 25.2346 89.9537 24.5157C89.7049 23.2399 89.8743 22.0388 90.6724 20.9785C91.1692 20.3186 91.8297 19.8701 92.566 19.5304C93.4909 19.1039 94.4674 18.863 95.4718 18.7342C95.9756 18.6699 96.4814 18.6229 96.986 18.566C97.1964 18.5424 97.4064 18.5125 97.6319 18.4838C97.6069 17.9261 97.6114 17.3841 97.2918 16.9077C97.0221 16.5061 96.6263 16.3047 96.1794 16.2117C95.8794 16.1494 95.5651 16.1137 95.2598 16.1265C94.5873 16.1552 93.9354 16.3076 93.3387 16.632C92.8881 16.877 92.4571 17.1586 92.0053 17.431C91.8244 17.0398 91.6321 16.6257 91.4405 16.2108C91.2711 15.8437 91.1099 15.4729 90.9314 15.1099C90.8602 14.9649 90.8811 14.8827 91.01 14.7876C91.8658 14.158 92.8148 13.7373 93.8351 13.4715C94.4187 13.3195 95.0077 13.2119 95.6121 13.2061C96.6152 13.1966 97.6102 13.2452 98.5437 13.6738C99.7502 14.2278 100.502 15.1896 100.883 16.4521C101.005 16.8571 101.091 17.2902 101.096 17.7113C101.132 20.8876 101.145 24.0643 101.165 27.2409C101.165 27.3713 101.165 27.5017 101.165 27.6558H101.165ZM97.6503 21.0408C97.3331 21.0745 97.027 21.0957 96.7245 21.1418C96.1487 21.2294 95.5688 21.3054 95.0015 21.4345C94.282 21.5982 93.696 21.9674 93.4336 22.717C93.1144 23.6286 93.4054 24.4974 94.3721 24.8297C94.8259 24.9858 95.2896 24.9945 95.7468 24.9073C96.4061 24.7819 96.9979 24.4895 97.5173 24.0522C97.62 23.9654 97.665 23.877 97.6642 23.7374C97.6572 22.9089 97.6609 22.0803 97.6605 21.2518C97.6605 21.1916 97.6552 21.131 97.6507 21.0413L97.6503 21.0408Z" fill="#FF0E00"/>
<path d="M103.22 13.755H104.994C104.994 13.4116 104.988 13.0719 104.995 12.7325C105.02 11.5485 105.24 10.4205 105.954 9.44375C106.512 8.68001 107.278 8.24809 108.179 8.03919C108.689 7.92125 109.206 7.88553 109.727 7.90837C110.6 7.94658 111.455 8.08031 112.273 8.40757C112.371 8.44702 112.462 8.48149 112.44 8.62228C112.386 8.98235 112.335 9.34325 112.288 9.70456C112.239 10.0875 112.197 10.4712 112.153 10.8545C112.126 11.0825 112.103 11.311 112.077 11.5523C111.377 11.1943 110.649 11.0925 109.906 11.1457C109.26 11.1918 108.663 11.5855 108.521 12.3214C108.432 12.7811 108.431 13.2579 108.388 13.7509H111.319V16.7041H108.467V27.9767H104.997V16.7145H103.219V13.7554L103.22 13.755Z" fill="#FF0E00"/>
<path d="M44.6699 14.25C45.4344 14.25 46.185 14.25 46.9356 14.25C47.3764 14.25 47.8176 14.2529 48.2583 14.2471C48.3701 14.2455 48.4278 14.282 48.4695 14.3892C49.1575 16.1567 49.8475 17.9238 50.54 19.6893C51.0078 20.882 51.4796 22.0727 51.9503 23.2642C51.9597 23.2879 51.9728 23.3103 51.9949 23.3548C52.5777 21.8181 53.1527 20.3006 53.7293 18.7835C54.3035 17.2734 54.8798 15.7642 55.4552 14.2542H59.035C58.909 14.5731 58.7911 14.8771 58.6687 15.1791C58.0552 16.697 57.4414 18.2149 56.8254 19.7321C56.1992 21.2741 55.5698 22.8149 54.9432 24.3565C54.4713 25.5177 53.9986 26.6788 53.5341 27.8429C53.4875 27.9601 53.4363 27.9962 53.316 27.9954C52.3956 27.9904 51.4747 27.99 50.5543 27.9958C50.4221 27.9966 50.3681 27.948 50.319 27.8297C49.4959 25.8499 48.6672 23.8726 47.8405 21.8941C47.0138 19.916 46.1883 17.9371 45.362 15.9586C45.1402 15.4274 44.9192 14.8962 44.6986 14.3647C44.6859 14.3343 44.6822 14.3003 44.6699 14.2492V14.25Z" fill="#FF0E00"/>
</g>
<defs>
<clipPath id="clip0_222_1586">
<rect width="154" height="39" fill="white" transform="translate(0.5 0.601074)"/>
</clipPath>
</defs>
</svg>
