<svg width="158" height="30" viewBox="0 0 158 30" fill="none" xmlns="http://www.w3.org/2000/svg">
<g clip-path="url(#clip0_222_1633)">
<path d="M11.499 10.0845C10.9767 9.26521 10.2711 8.79692 9.32772 8.6346C7.24369 8.27518 5.95634 9.38695 5.18937 10.8601C4.66204 11.8726 4.35791 12.9561 4.28709 14.1026C4.26623 14.4421 4.2403 14.7822 4.23082 15.1223C4.19478 16.3751 4.35791 17.6041 4.80304 18.7706C5.29054 20.0486 6.02653 21.1764 7.32589 21.7059C8.7751 22.2966 10.6897 21.9662 11.5085 20.5239C11.3207 20.0743 11.1177 19.6834 10.9932 19.2679C10.7283 18.3874 11.4193 17.3587 12.3033 17.1481C13.2814 16.9149 14.2432 17.4862 14.4651 18.426C14.7092 19.4605 14.4936 20.3983 13.9131 21.2583C12.8882 22.7758 11.4238 23.5791 9.68307 23.9385C6.19788 24.6573 2.71838 22.6335 1.30963 19.3536C0.903697 18.4086 0.654574 17.4257 0.555937 16.3944C0.357397 14.3229 0.676072 12.3602 1.69343 10.5419C2.88846 8.40529 4.62284 6.97146 7.04199 6.55986C9.21075 6.19078 11.2012 6.65648 12.9014 8.147C13.719 8.86391 14.2906 9.74444 14.455 10.8401C14.5454 11.4456 14.5169 12.0582 14.1603 12.6102C13.7854 13.1905 13.2448 13.4913 12.596 13.4469C11.7633 13.3902 11.1114 12.7828 10.9243 12.0614C10.7245 11.2923 10.9944 10.6701 11.4996 10.0839L11.499 10.0845Z" fill="#004E9F"/>
<path d="M90.4567 22.2373C90.3827 22.3037 90.327 22.3468 90.2784 22.3977C89.4545 23.2628 88.4814 23.7446 87.28 23.9114C85.8517 24.1098 84.0262 23.1159 83.4566 21.923C83.16 21.302 82.9551 20.6586 82.9299 19.9777C82.8799 18.6328 82.8717 17.2865 82.8489 15.941C82.8439 15.6627 82.8533 15.3838 82.847 15.1055C82.8243 14.1245 82.5125 13.8076 81.5559 13.8553C81.2385 13.8707 81.179 13.6955 81.1537 13.4662C81.0962 12.9419 81.3118 12.5245 81.7019 12.2018C82.3032 11.7039 82.995 11.4269 83.7733 11.4121C84.1167 11.4056 84.4682 11.4076 84.8021 11.4759C85.5178 11.6221 85.8782 12.3905 85.8896 12.8865C85.9339 14.8305 85.9263 16.7764 85.9655 18.7204C85.9788 19.3903 86.1046 20.0531 86.446 20.6431C86.8912 21.4128 87.519 21.5333 88.4112 21.4038C89.3451 21.2686 89.9862 20.5871 90.1759 19.5526C90.2802 18.9838 90.3409 18.4002 90.3517 17.8218C90.3707 16.8163 90.3612 15.8083 90.3163 14.8041C90.2859 14.1168 89.9477 13.8488 89.2698 13.8359C89.0953 13.8327 88.8374 13.8398 88.764 13.7355C88.6053 13.51 88.5048 13.2066 88.6957 12.9348C88.8943 12.652 89.084 12.3383 89.3489 12.1342C89.8977 11.7097 90.5281 11.4759 91.2394 11.4598C91.6112 11.4514 91.9628 11.3644 92.3403 11.5222C92.9479 11.7754 93.4177 12.4124 93.4158 13.1042C93.412 14.8073 93.4133 16.5104 93.4025 18.2134C93.3981 18.9072 93.3639 19.6003 93.35 20.294C93.3475 20.4074 93.3703 20.5233 93.3987 20.6341C93.6257 21.5107 93.8375 21.6898 94.7278 21.6866C94.9788 21.686 95.0319 21.8148 95.0534 22.0067C95.1173 22.5871 94.8821 23.0154 94.4041 23.3233C93.7831 23.724 93.0769 23.876 92.3725 23.9977C91.8534 24.0873 91.3539 23.9275 91.015 23.4998C90.8164 23.2493 90.7102 22.9214 90.5736 22.6225C90.5224 22.5111 90.5015 22.3861 90.4579 22.2373H90.4567Z" fill="#004E9F"/>
<path d="M28.0969 22.0879C28.2152 23.0599 27.5494 23.6248 26.9303 23.818C25.7985 24.1716 24.6478 23.8251 23.9402 22.5877C23.8485 22.6547 23.7562 22.7191 23.6677 22.7874C22.6643 23.5584 21.5274 23.9797 20.2774 23.932C18.6479 23.8695 17.0584 23.0818 16.3926 21.2118C15.7672 19.4566 16.4507 17.7889 18.0043 16.8968C19.2309 16.1921 20.5461 16.0318 21.9175 16.2295C22.4347 16.3042 22.9456 16.4189 23.5033 16.5232C23.5033 16.243 23.5109 15.9403 23.5014 15.6388C23.4875 15.2021 23.5115 14.7551 23.4281 14.3313C23.2864 13.6111 22.7787 13.2504 22.0604 13.1319C21.4541 13.032 20.8869 13.1441 20.3071 13.2659C20.1085 13.3077 20.0965 13.3728 20.1281 13.5673C20.2255 14.1612 20.1408 14.719 19.683 15.1615C18.9306 15.8894 17.642 15.7071 17.1817 14.5722C16.9022 13.8823 17.1248 13.2994 17.5294 12.7705C18.0327 12.1129 18.7409 11.7605 19.5129 11.5319C20.1907 11.3309 20.8837 11.2755 21.59 11.2723C22.5037 11.2684 23.4078 11.2961 24.2804 11.6021C25.3711 11.9847 26.1672 12.6842 26.3309 13.892C26.4517 14.7841 26.47 15.6936 26.4871 16.5967C26.5111 17.9139 26.5193 19.2324 26.4852 20.5497C26.4549 21.7201 26.9999 21.903 27.9256 22.073C27.9762 22.0821 28.0286 22.0827 28.0969 22.0885V22.0879ZM23.5836 19.8527C23.5836 19.6601 23.5754 19.4675 23.5849 19.2756C23.6089 18.797 23.4123 18.4749 22.981 18.2656C22.3437 17.9558 21.6817 17.941 21.0051 18.0298C20.3014 18.1226 19.7564 18.5014 19.5445 19.1777C19.3175 19.903 19.4061 20.6341 19.9669 21.2209C20.6099 21.894 21.5944 22.0138 22.5795 21.5365C23.2314 21.2209 23.7486 20.8048 23.5842 19.9487C23.5786 19.9178 23.5836 19.8849 23.583 19.8527H23.5836Z" fill="#004E9F"/>
<path d="M74.609 11.2787C78.1138 11.213 80.5317 14.0324 80.7037 17.052C80.9503 21.378 77.5321 24.1284 73.9799 23.93C70.7786 23.7516 68.2861 21.1725 68.2715 17.6105C68.257 14.0497 71.0144 11.1415 74.609 11.2781V11.2787ZM74.4187 13.1351C73.7902 13.1325 73.2844 13.3174 72.8563 13.7264C72.0855 14.4633 71.8143 15.4346 71.7447 16.4543C71.696 17.1725 71.7529 17.9023 71.8086 18.6237C71.8788 19.5384 72.1981 20.3745 72.7716 21.0856C73.8155 22.3796 75.3614 22.2424 76.3225 21.1539C76.9744 20.4157 77.1508 19.4804 77.2349 18.5322C77.2754 18.0736 77.2299 17.6079 77.2292 17.1454C77.228 16.2694 77.0338 15.4398 76.6412 14.6623C76.1676 13.7258 75.443 13.1621 74.4193 13.1351H74.4187Z" fill="#004E9F"/>
<path d="M61.8305 13.4004C61.3133 13.4004 60.8309 13.3875 60.3497 13.4062C60.1246 13.4152 60.0323 13.3134 59.9748 13.1189C59.7035 12.2068 60.2846 11.5266 61.0882 11.5652C61.3064 11.5755 61.5258 11.5665 61.7856 11.5665C61.7856 11.2689 61.7819 11.0048 61.7863 10.7414C61.8002 9.90338 61.8242 9.06665 62.117 8.26729C62.6803 6.73104 63.7356 5.82733 65.3543 5.6109C66.1605 5.50333 66.9635 5.51814 67.7463 5.70108C68.6435 5.91106 69.475 6.275 70.044 7.08145C70.5486 7.79643 70.5815 9.10981 69.8486 9.67149C68.8983 10.4 67.8531 9.91948 67.4383 9.04346C67.1993 8.53847 67.3125 8.07598 67.5699 7.61028C67.3169 7.40029 67.0552 7.26696 66.7308 7.29079C66.4096 7.31398 66.0802 7.2953 65.7685 7.36293C65.4365 7.43572 65.1766 7.66889 65.0748 8.00642C64.949 8.42124 64.8118 8.84701 64.7846 9.27471C64.7372 10.0103 64.7713 10.7511 64.7713 11.5343C65.0723 11.5343 65.3625 11.5343 65.6534 11.5343C66.2958 11.5343 66.9382 11.5408 67.5806 11.5298C67.7494 11.5266 67.8209 11.5891 67.8658 11.7449C68.1041 12.5733 67.8152 13.412 66.6815 13.5169C66.0909 13.5717 65.4915 13.5266 64.8516 13.5266C64.8516 13.5904 64.8516 13.7031 64.8516 13.8152C64.8491 16.0645 64.8478 18.3138 64.844 20.5631C64.8428 21.3135 65.3296 21.8881 66.0802 22.0124C66.2224 22.0362 66.3679 22.0472 66.507 22.0819C66.567 22.0967 66.6366 22.1457 66.6657 22.1992C66.8535 22.5444 66.7365 23.0217 66.4178 23.2543C65.9872 23.5686 65.4763 23.6304 64.9775 23.6678C64.1934 23.727 63.4031 23.7721 62.6196 23.7328C62.0278 23.7032 61.4233 23.5918 60.8606 23.4043C60.3769 23.2433 60.2353 22.7757 60.4224 22.308C60.4648 22.2017 60.5856 22.0871 60.6937 22.0542C61.6465 21.7631 61.7711 21.4462 61.7983 20.5624C61.8546 18.7647 61.8249 16.9637 61.8299 15.164C61.8312 14.5888 61.8299 14.0136 61.8299 13.3984L61.8305 13.4004Z" fill="#004E9F"/>
<path d="M51.2706 17.6536C51.3635 19.3077 52.0666 20.558 53.5462 21.1332C55.3014 21.816 56.9011 21.3825 58.2346 20.0182C58.829 20.3635 58.8347 20.9567 58.6475 21.6221C58.3883 22.5451 57.6611 23.0701 56.8372 23.4263C55.4222 24.0382 53.9376 24.1638 52.47 23.7329C50.5523 23.1699 49.2175 21.8959 48.4733 19.9918C48.0977 19.0295 47.994 18.024 48.104 17.0217C48.374 14.5592 49.7689 12.0349 52.7729 11.3998C54.3859 11.059 55.9969 11.1466 57.3747 12.27C58.3219 13.0429 58.8789 14.0285 59.0408 15.2749C59.1344 15.9969 59.0338 16.661 58.8157 17.3309C58.7373 17.5718 58.6051 17.6633 58.3358 17.6614C56.1032 17.6472 53.8705 17.6536 51.6385 17.6536H51.2699H51.2706ZM51.323 15.9712C52.819 15.9712 54.2916 15.9763 55.7636 15.9602C55.861 15.9589 56.0292 15.8063 56.0412 15.7077C56.0968 15.2607 56.0608 14.8124 55.8427 14.4059C55.2135 13.2336 54.1728 13.0094 53.0365 13.298C51.9218 13.5814 51.2977 14.9431 51.3224 15.9712H51.323Z" fill="#004E9F"/>
<path d="M101.916 13.6347C101.329 13.8672 101.07 14.3503 100.868 14.8708C100.648 15.4376 100.596 16.038 100.597 16.6415C100.599 18.0232 100.606 19.4048 100.619 20.7865C100.624 21.3404 100.867 21.7398 101.406 21.915C101.602 21.9788 101.811 22.0084 102 22.0883C102.092 22.1269 102.176 22.2351 102.219 22.3317C102.446 22.8361 102.339 23.2335 101.837 23.4338C101.417 23.6013 100.955 23.7102 100.504 23.7392C99.3803 23.8107 98.2542 23.8177 97.1426 23.564C96.595 23.439 96.1986 23.0532 96.2618 22.6132C96.2953 22.3775 96.3345 22.1069 96.6475 22.0354C97.3955 21.8654 97.706 21.3333 97.711 20.6055C97.7243 18.6885 97.7243 16.771 97.7155 14.854C97.711 13.8775 97.2039 13.7519 96.418 13.8814C96.1992 13.9175 96.1234 13.8814 96.062 13.6759C95.8768 13.0524 96.1019 12.5654 96.5584 12.1822C97.2779 11.5774 98.1189 11.3145 99.0483 11.4131C99.5725 11.4685 99.9177 11.8176 100.154 12.2749C100.269 12.4978 100.355 12.7368 100.456 12.9745C100.971 12.217 101.58 11.5896 102.483 11.3294C103.575 11.015 104.654 11.4382 104.944 12.3709C105.317 13.5671 104.885 14.7007 103.441 14.8592C102.84 14.9255 102.389 14.5152 102.092 13.9793C102.031 13.8711 101.979 13.7584 101.916 13.6341L101.916 13.6347Z" fill="#004E9F"/>
<path d="M44.9534 13.6322C44.4545 13.8222 44.1751 14.2016 43.9873 14.6577C43.7186 15.3108 43.5959 15.993 43.601 16.7041C43.6104 18.0213 43.5662 19.3399 43.6161 20.6552C43.6503 21.5621 43.9968 21.8294 45.0015 22.0851C45.1058 22.1115 45.25 22.2172 45.2702 22.3099C45.4283 23.0359 45.3031 23.3586 44.5937 23.5422C44.1036 23.6691 43.5864 23.7135 43.0787 23.738C42.4356 23.7689 41.7888 23.7695 41.1458 23.7322C40.6766 23.7051 40.2043 23.6349 39.7769 23.3959C39.3146 23.1376 39.1496 22.67 39.3772 22.1959C39.4082 22.1315 39.4955 22.08 39.5676 22.0523C40.54 21.6819 40.7392 21.4494 40.7518 20.4297C40.774 18.6307 40.7626 16.8316 40.7588 15.0326C40.7588 14.8342 40.7253 14.6345 40.6937 14.4374C40.633 14.0657 40.3605 13.8512 39.9185 13.8441C39.689 13.8403 39.4582 13.8738 39.2211 13.8912C38.9606 13.4738 38.9694 12.9024 39.2849 12.5011C39.8192 11.8209 40.5609 11.4737 41.3816 11.4222C42.6076 11.3456 42.9832 11.6496 43.4201 12.8271C43.434 12.8644 43.4593 12.8979 43.4922 12.9565C43.9791 12.2551 44.5437 11.6766 45.3372 11.3881C46.2623 11.0518 47.2632 11.2374 47.7703 11.9749C48.2015 12.601 48.2477 13.2992 47.893 13.9672C47.5458 14.6216 46.954 14.8999 46.2243 14.8181C45.7514 14.7646 45.4201 14.4722 45.1754 14.0741C45.0932 13.9401 45.0325 13.792 44.9534 13.6322Z" fill="#004E9F"/>
<path d="M33.483 12.9278C33.8238 12.5761 34.1342 12.2122 34.489 11.8998C34.9777 11.4701 35.567 11.2183 36.2132 11.2247C37.1743 11.2337 38.0418 11.7123 38.1442 12.9091C38.2359 13.9803 37.6548 14.7732 36.4604 14.8596C35.9015 14.9001 35.4658 14.5253 35.1876 14.0164C35.1269 13.9056 35.0858 13.7839 35.0232 13.6389C34.7115 13.7046 34.4991 13.9153 34.3088 14.1575C33.9009 14.676 33.7232 15.3085 33.6992 15.932C33.6398 17.4824 33.6499 19.0367 33.6752 20.5891C33.6929 21.6841 34.0824 21.7859 35.0315 22.079C35.1408 22.1125 35.2749 22.2039 35.3154 22.3031C35.5531 22.8886 35.2882 23.4072 34.6679 23.5431C33.7062 23.7537 32.7293 23.8651 31.7467 23.8052C31.1953 23.7711 30.6459 23.6616 30.1021 23.5514C29.4768 23.4245 29.1821 22.8551 29.4306 22.2812C29.473 22.1827 29.5824 22.0822 29.6823 22.0468C30.5112 21.7582 30.7622 21.5025 30.7761 20.6187C30.8078 18.6812 30.8096 16.743 30.7787 14.8054C30.7635 13.8405 30.264 13.762 29.478 13.8824C29.2561 13.9165 29.1885 13.8715 29.1271 13.6679C28.9229 12.9916 29.2093 12.4969 29.7031 12.1111C30.4214 11.5494 31.2504 11.3188 32.1558 11.4077C32.6736 11.4585 33.2579 12.0872 33.4261 12.7475C33.4431 12.8144 33.4684 12.8789 33.4836 12.9265L33.483 12.9278Z" fill="#004E9F"/>
<path d="M135.758 29.6008C135.412 29.4958 135.058 29.4121 134.721 29.2813C133.431 28.7796 132.603 27.7741 131.949 26.5921C131.282 25.3889 130.873 24.0845 130.59 22.7441C130.394 21.8107 130.258 20.8619 130.143 19.9138C130.041 19.0745 129.974 18.2274 129.947 17.3823C129.902 15.9305 129.865 14.476 129.892 13.0235C129.908 12.1069 130.048 11.1923 130.129 10.2763C130.244 8.99126 130.494 7.73199 130.828 6.48882C131.258 4.88494 131.87 3.36737 132.981 2.11389C133.889 1.08973 135.031 0.552522 136.399 0.603408C137.731 0.652362 139.007 0.947373 140.113 1.74481C140.483 2.01212 140.827 2.3548 141.092 2.72968C141.57 3.40666 141.481 3.95417 140.906 4.55514C140.208 5.28365 139.626 6.08817 139.357 7.0885C139.054 8.21058 139.216 9.26502 139.865 10.2196C140.588 11.2824 141.584 11.9375 142.871 11.9047C144.207 11.8712 145.542 11.1613 146.131 9.48918C146.513 8.40639 146.491 7.32361 146.323 6.20991C146.096 4.69685 145.441 3.37832 144.636 2.11776C144.613 2.08169 144.587 2.04755 144.565 2.01148C144.466 1.85173 144.293 1.6688 144.479 1.50197C144.679 1.32354 144.797 1.5754 144.91 1.68683C147.389 4.11842 149.86 6.5571 152.337 8.99062C153.814 10.4418 155.297 11.886 156.777 13.3327C157.16 13.7063 157.352 14.1829 157.5 14.6847V15.4564C157.322 16.1475 156.925 16.6744 156.417 17.1698C153.238 20.2661 150.082 23.3876 146.918 26.5006C146.222 27.186 145.529 27.8746 144.823 28.5496C144.743 28.6263 144.589 28.623 144.469 28.6565C144.471 28.5284 144.467 28.4002 144.476 28.2726C144.479 28.2346 144.517 28.1992 144.541 28.1638C145.48 26.7512 146.197 25.2504 146.388 23.526C146.507 22.4549 146.465 21.4069 146.048 20.4046C145.139 18.2184 142.411 17.6271 140.69 19.0242C139.372 20.0948 138.848 21.7914 139.484 23.4565C139.819 24.3331 140.354 25.0668 141.015 25.7084C141.427 26.1084 141.499 26.7576 141.221 27.1976C141.047 27.4739 140.859 27.7541 140.626 27.9776C139.794 28.7757 138.77 29.1867 137.665 29.4076C137.284 29.4836 136.899 29.5364 136.516 29.6002H135.757L135.758 29.6008Z" fill="#004E9F"/>
<path d="M127.643 1.54337C127.596 1.68379 127.582 1.85255 127.496 1.96141C125.98 3.87318 124.74 5.95308 123.918 8.26357C123.574 9.23234 123.349 10.2501 123.129 11.2594C122.969 11.9963 122.866 12.7519 122.812 13.5049C122.759 14.2411 122.793 14.9851 122.803 15.7252C122.809 16.1496 122.821 16.5761 122.869 16.9967C122.96 17.7909 123.019 18.5967 123.199 19.3716C123.439 20.4073 123.706 21.4489 124.096 22.4338C124.843 24.3249 125.87 26.0673 127.099 27.6815C127.235 27.8593 127.405 28.0171 127.504 28.2135C127.567 28.3385 127.53 28.5156 127.538 28.6696C127.425 28.6232 127.285 28.6052 127.204 28.526C124.571 25.9462 121.947 23.3594 119.317 20.7771C117.984 19.4676 116.639 18.1703 115.307 16.8588C114.827 16.386 114.535 15.7999 114.527 15.1152C114.521 14.4298 114.779 13.8243 115.263 13.347C116.881 11.7509 118.512 10.1676 120.133 8.57597C122.468 6.2848 124.798 3.98848 127.135 1.70053C127.247 1.59103 127.414 1.53821 127.554 1.45898C127.584 1.48733 127.613 1.51567 127.643 1.54465V1.54337Z" fill="#E3000D"/>
</g>
<defs>
<clipPath id="clip0_222_1633">
<rect width="157" height="29" fill="white" transform="translate(0.5 0.601074)"/>
</clipPath>
</defs>
</svg>
