<svg width="126" height="40" viewBox="0 0 126 40" fill="none" xmlns="http://www.w3.org/2000/svg">
<g clip-path="url(#clip0_222_1647)">
<path d="M30.8749 6.46234L35.2958 14.2403L39.7167 22.0182C42.9043 27.6245 41.0119 34.7933 35.4922 38.0284C33.7368 39.0577 31.7487 39.5987 29.7218 39.5987H12.0408C5.66805 39.6013 0.5 34.3547 0.5 27.8819C0.5 25.8232 1.03257 23.8038 2.04602 22.0208L6.46691 14.2429L10.8878 6.46497C14.0755 0.85865 21.1308 -1.06352 26.6505 2.17423C28.4059 3.20359 29.8614 4.68197 30.8749 6.46497M20.8826 7.38141C12.5502 7.38141 5.79473 14.2429 5.79473 22.7062C5.79473 31.1695 12.5502 38.031 20.8826 38.031C29.2151 38.031 35.9705 31.1695 35.9705 22.7062C35.9705 18.6413 34.3806 14.7445 31.5522 11.8691C28.7265 8.99109 24.8847 7.37616 20.8826 7.38141Z" fill="#00D1D2"/>
<path d="M95.9004 7.88791C96.6398 7.8774 97.3766 7.97193 98.0901 8.16888C98.6744 8.32643 99.2199 8.6074 99.6904 8.99079C100.006 9.25338 100.262 9.58687 100.435 9.96237C100.606 10.3458 100.691 10.7606 100.683 11.1808V15.8392C100.688 16.2593 100.603 16.6742 100.435 17.0576C100.262 17.4331 100.006 17.7666 99.6904 18.0292C99.2199 18.4152 98.6744 18.6935 98.0901 18.8511C97.3766 19.048 96.6398 19.1426 95.9004 19.132H89.6594C88.92 19.1426 88.1832 19.048 87.4697 18.8511C86.8854 18.6935 86.3399 18.4152 85.8693 18.0292C85.5539 17.7666 85.298 17.4331 85.1248 17.0576C84.9541 16.6742 84.8688 16.2593 84.874 15.8392V11.1808C84.8688 10.7606 84.9541 10.3458 85.1248 9.96237C85.298 9.58687 85.5513 9.25338 85.8693 8.99079C86.3399 8.60478 86.8854 8.32643 87.4697 8.16888C88.1832 7.97193 88.92 7.8774 89.6594 7.88791H95.9004ZM95.9004 5.54559H89.6594C87.3559 5.54559 85.5824 6.17581 84.3854 7.19729C83.2168 8.17938 82.5498 9.64464 82.5679 11.1834V15.8418C82.5498 17.3806 83.2168 18.8458 84.3854 19.8279C85.5824 20.8494 87.3559 21.4796 89.6594 21.4796H95.9004C98.2039 21.4796 99.9774 20.8494 101.174 19.8279C102.343 18.8458 103.01 17.3806 102.992 15.8418V11.1834C103.01 9.64464 102.343 8.17938 101.174 7.19729C99.9774 6.17844 98.2039 5.54559 95.9004 5.54559ZM77.86 19.5811C77.5782 19.2949 77.1956 19.1347 76.7975 19.1347H65.3264C64.587 19.1452 63.8502 19.0506 63.1367 18.8537C62.5524 18.6961 62.0069 18.4178 61.5364 18.0318C61.2209 17.7692 60.965 17.4357 60.7918 17.0602C60.6212 16.6768 60.5358 16.2619 60.5436 15.8418V8.2214C60.5436 8.03758 60.691 7.89053 60.8693 7.89053H71.5674C72.3068 7.88003 73.0436 7.97456 73.7571 8.1715C74.3414 8.32906 74.8869 8.61003 75.3574 8.99341C75.6729 9.256 75.9288 9.58949 76.102 9.965C76.2726 10.3484 76.358 10.7633 76.3528 11.1834V15.5608C76.3528 16.1096 76.7897 16.556 77.3326 16.556H77.6817C78.222 16.556 78.6615 16.1096 78.6615 15.5608V11.1808C78.6796 9.64201 78.0126 8.17676 76.844 7.19467C75.647 6.17581 73.8735 5.54297 71.57 5.54297H59.2173C58.677 5.54297 58.2375 5.98675 58.2375 6.53819V15.8392C58.2194 17.3779 58.8864 18.8432 60.055 19.8253C61.252 20.8441 63.0255 21.477 65.329 21.477H76.1227C76.3425 21.477 76.5544 21.5663 76.7096 21.7238L77.8911 22.9239L79.0726 24.1239C79.4552 24.5125 80.0756 24.5125 80.4583 24.1239L80.5772 24.0031L80.6961 23.8823C81.0813 23.4911 81.0813 22.853 80.6961 22.4617L79.2794 21.0227L77.8626 19.5837L77.86 19.5811ZM112.348 5.56135C110.244 5.56135 108.731 6.04452 107.744 6.82704C106.81 7.55179 106.273 8.68618 106.299 9.87834V10.3746C106.273 11.5668 106.81 12.7012 107.744 13.4259C108.729 14.2085 110.241 14.6916 112.348 14.6916H118.894C119.53 14.6838 120.166 14.7494 120.787 14.8912C121.252 14.9857 121.691 15.1801 122.077 15.461C122.265 15.6028 122.41 15.7919 122.501 16.0125C122.679 16.6007 122.679 17.2309 122.501 17.8191C122.413 18.037 122.265 18.2287 122.077 18.3679C121.691 18.6489 121.252 18.8432 120.787 18.9377C120.166 19.0769 119.53 19.1425 118.894 19.1373H111.151C110.27 19.1373 109.419 18.7933 108.78 18.1736L108.519 17.9215L108.258 17.6694C107.863 17.286 107.237 17.3044 106.86 17.7062C106.86 17.7062 106.86 17.7062 106.857 17.7088L106.743 17.8296L106.629 17.9504C106.255 18.3522 106.273 18.9876 106.668 19.3684L106.929 19.6205L107.19 19.8726C108.258 20.9045 109.678 21.4796 111.151 21.4796H118.894C120.999 21.4796 122.511 20.9964 123.499 20.2139C124.432 19.4892 124.97 18.3548 124.944 17.1626V16.6663C124.97 15.4742 124.432 14.3398 123.499 13.615C122.514 12.8325 121.001 12.3493 118.894 12.3493H112.348C111.712 12.3572 111.076 12.2916 110.456 12.1498C109.99 12.0552 109.551 11.8609 109.166 11.5799C108.977 11.4381 108.832 11.2491 108.742 11.0285C108.563 10.4403 108.563 9.81007 108.742 9.22187C108.83 9.00392 108.977 8.81223 109.166 8.67305C109.551 8.39208 109.99 8.19776 110.456 8.10323C111.076 7.96406 111.712 7.89841 112.348 7.90366L115.903 7.89578L119.458 7.88791C120.308 7.88791 121.13 8.20827 121.764 8.78597L122.092 9.08532L122.421 9.38467C122.826 9.75493 123.452 9.72079 123.817 9.30852L123.925 9.1851L124.036 9.06169C124.401 8.64942 124.37 8.01395 123.964 7.6437L123.636 7.34172L123.307 7.04236C122.25 6.07865 120.88 5.54559 119.46 5.54559L115.906 5.55347L112.348 5.56135ZM51.6579 6.55132V20.4739C51.6579 21.028 52.1 21.4796 52.648 21.4796H52.9764C53.5219 21.4796 53.9665 21.0306 53.9665 20.4739V6.54869C53.9665 5.99463 53.5245 5.54297 52.9764 5.54297H52.6454C52.0999 5.54297 51.6553 5.992 51.6553 6.54869L51.6579 6.55132Z" fill="#34303D"/>
<path d="M52.9612 34.5827V30.8775H51.6582V30.355H54.8511V30.8775H53.5403V34.5827H52.9612Z" fill="#34303D"/>
<path d="M55.5514 32.4689C55.5669 31.2741 56.5338 30.3209 57.7076 30.3366C58.8839 30.3524 59.8224 31.3345 59.8068 32.5266C59.7913 33.7083 58.8425 34.6589 57.6791 34.6589C56.5287 34.6825 55.5747 33.7556 55.5488 32.587C55.5488 32.5476 55.5488 32.5082 55.5488 32.4689H55.5514ZM59.2226 32.4689C59.1838 31.6023 58.4625 30.9327 57.6093 30.9721C56.7562 31.0115 56.0969 31.7441 56.1357 32.6107C56.1719 33.4483 56.8518 34.1101 57.6791 34.1101C58.5168 34.1258 59.2096 33.4483 59.2251 32.5975C59.2251 32.5555 59.2251 32.5135 59.2226 32.4715V32.4689Z" fill="#34303D"/>
<path d="M63.023 32.3325H64.7603V34.5829H64.2639L64.2355 34.0787C63.8787 34.4595 63.3798 34.6696 62.8627 34.6617C61.751 34.6617 60.8643 33.8057 60.8643 32.4874C60.8643 31.1692 61.7174 30.2791 62.9403 30.2791C63.6305 30.2607 64.2846 30.5863 64.6931 31.1535L64.2484 31.4791C63.9537 31.0642 63.478 30.82 62.9739 30.82C62.1492 30.82 61.4485 31.3898 61.4485 32.4586C61.4485 33.5273 62.0845 34.126 62.9403 34.126C63.4418 34.147 63.9175 33.8949 64.1864 33.4617V32.8157H63.0282V32.3351L63.023 32.3325Z" fill="#34303D"/>
<path d="M66.3223 34.5827V30.355H68.9127V30.8775H66.8962V32.159H68.7447V32.6763H66.8962V34.0575H68.9722V34.5801H66.3223V34.5827Z" fill="#34303D"/>
<path d="M71.0813 34.5827V30.8775H69.7783V30.355H72.9712V30.8775H71.6604V34.5827H71.0813Z" fill="#34303D"/>
<path d="M74.1582 34.5827V30.355H74.7321V32.1301H76.8883V30.355H77.4622V34.5827H76.8883V32.671H74.7321V34.5827H74.1582Z" fill="#34303D"/>
<path d="M79.0986 34.5827V30.355H81.6891V30.8775H79.6726V32.159H81.5211V32.6763H79.6726V34.0575H81.7486V34.5801H79.0986V34.5827Z" fill="#34303D"/>
<path d="M86.3578 34.5827H85.7141L84.6567 32.7472H83.8604V34.5827H83.2891V30.355H84.7963C85.6314 30.355 86.182 30.7541 86.182 31.555C86.2156 32.1275 85.8097 32.629 85.2513 32.7078L86.3578 34.5827ZM83.8604 30.8539V32.2483H84.8066C85.3082 32.2483 85.6003 31.9988 85.6003 31.5524C85.6003 31.106 85.3082 30.8513 84.8066 30.8513H83.8604V30.8539Z" fill="#34303D"/>
<path d="M87.4131 34.268C87.4131 34.0553 87.5837 33.8846 87.7931 33.882C88.0051 33.8767 88.1809 34.0474 88.1861 34.2601C88.1913 34.4754 88.0232 34.654 87.8138 34.6592C87.8061 34.6592 87.8009 34.6592 87.7931 34.6592C87.5837 34.6592 87.4131 34.4859 87.4131 34.2732C87.4131 34.2732 87.4131 34.2706 87.4131 34.268Z" fill="#34303D"/>
<path d="M91.1123 34.5827V30.355H93.6097V30.8775H91.6862V32.3428H93.4649V32.8548H91.6888V34.5827H91.1149H91.1123Z" fill="#34303D"/>
<path d="M94.6569 32.4689C94.6724 31.2741 95.6393 30.3209 96.813 30.3366C97.9894 30.3524 98.9278 31.3345 98.9123 32.5266C98.8968 33.7083 97.948 34.6589 96.7846 34.6589C95.6341 34.6825 94.6802 33.7556 94.6543 32.587C94.6543 32.5476 94.6543 32.5082 94.6543 32.4689H94.6569ZM98.328 32.4689C98.2892 31.6023 97.5679 30.9327 96.7148 30.9721C95.8616 31.0115 95.2024 31.7441 95.2412 32.6107C95.2774 33.4483 95.9573 34.1101 96.7846 34.1101C97.6222 34.1258 98.3151 33.4483 98.3306 32.5975C98.3306 32.5555 98.3306 32.5135 98.328 32.4715V32.4689Z" fill="#34303D"/>
<path d="M103.372 34.5827H102.728L101.671 32.7472H100.875V34.5827H100.301V30.355H101.808C102.643 30.355 103.194 30.7541 103.194 31.555C103.227 32.1275 102.821 32.629 102.263 32.7078L103.37 34.5827H103.372ZM100.875 30.8539V32.2483H101.821C102.325 32.2483 102.617 31.9988 102.617 31.5524C102.617 31.106 102.325 30.8513 101.821 30.8513H100.875V30.8539Z" fill="#34303D"/>
<path d="M109.641 30.355H110.244L108.835 34.5827H108.338L107.291 31.3344L106.229 34.5827H105.732L104.359 30.355H104.967L105.996 33.6216L107.061 30.355H107.557L108.586 33.6216L109.644 30.355H109.641Z" fill="#34303D"/>
<path d="M113.856 34.5827L113.551 33.7582H111.674L111.372 34.5827H110.774L112.377 30.355H112.85L114.464 34.5827H113.854H113.856ZM111.863 33.2461H113.36L112.61 31.2268L111.863 33.2461Z" fill="#34303D"/>
<path d="M118.902 34.5827H118.259L117.201 32.7472H116.405V34.5827H115.831V30.355H117.338C118.173 30.355 118.724 30.7541 118.724 31.555C118.758 32.1275 118.352 32.629 117.793 32.7078L118.9 34.5827H118.902ZM116.405 30.8539V32.2483H117.351C117.853 32.2483 118.145 31.9988 118.145 31.5524C118.145 31.106 117.853 30.8513 117.351 30.8513H116.405V30.8539Z" fill="#34303D"/>
<path d="M120.26 34.5827V30.355H121.622C122.933 30.355 123.815 31.1506 123.815 32.4688C123.815 33.787 122.93 34.5827 121.622 34.5827H120.26ZM120.831 34.0601H121.586C122.545 34.0601 123.223 33.5612 123.223 32.4688C123.223 31.3765 122.545 30.8775 121.586 30.8775H120.831V34.0601Z" fill="#34303D"/>
<path d="M124.727 34.268C124.727 34.0553 124.897 33.8846 125.107 33.882C125.319 33.8767 125.494 34.0474 125.5 34.2601C125.505 34.4728 125.337 34.654 125.127 34.6592C125.12 34.6592 125.114 34.6592 125.107 34.6592C124.897 34.6592 124.727 34.4859 124.727 34.2732C124.727 34.2732 124.727 34.2706 124.727 34.268Z" fill="#34303D"/>
</g>
<defs>
<clipPath id="clip0_222_1647">
<rect width="125" height="39" fill="white" transform="translate(0.5 0.601074)"/>
</clipPath>
</defs>
</svg>
