<svg width="126" height="37" viewBox="0 0 126 37" fill="none" xmlns="http://www.w3.org/2000/svg">
<g clip-path="url(#clip0_344_6048)">
<path d="M0 20.588C0 19.2808 0 18.096 0 16.9113C0.00609308 11.55 0.0231537 6.18869 0 0.826782C0 0.172906 0.191323 0 0.837189 0C42.2547 0.0138 83.6726 0.0182647 125.091 0.0133941C125.985 0.0133941 125.988 0.017047 125.988 0.901667C125.988 5.20909 125.978 9.51651 126.002 13.8233C126.021 13.9406 126.015 14.0605 125.987 14.1758C125.958 14.2911 125.906 14.3993 125.834 14.4941C125.763 14.5888 125.673 14.6681 125.569 14.7272C125.466 14.7862 125.352 14.8238 125.234 14.8376C120.825 16.1664 116.287 17.0215 111.697 17.3886C106.625 17.7562 101.53 17.6231 96.4845 16.991C89.1344 16.1344 81.9629 14.3901 74.7688 12.7408C69.1967 11.4623 63.6184 10.1947 58.0128 9.0879C53.3352 8.18013 48.5921 7.64976 43.8293 7.50192C36.7011 7.22491 29.5728 8.05131 22.6973 9.95182C16.0415 11.851 9.67442 14.644 3.7704 18.2543C2.54264 18.9953 1.33317 19.7624 0 20.588Z" fill="#04459E"/>
<path d="M67.1616 24.1356H69.8255V36.8965C68.8597 36.8965 67.9208 36.9196 66.9855 36.8764C66.8088 36.8679 66.5888 36.628 66.4822 36.4411C64.8533 33.5874 63.2334 30.7287 61.6224 27.8652C61.5614 27.7544 61.4847 27.6503 61.3616 27.4604V36.86H58.7349V24.1124C59.7877 24.1124 60.8565 24.0942 61.9234 24.1337C62.072 24.1392 62.2457 24.4089 62.3499 24.5891C63.8435 27.2115 65.3314 29.8372 66.8137 32.4661C66.9106 32.6366 67.0135 32.804 67.1628 33.0542L67.1616 24.1356Z" fill="#1A1819"/>
<path d="M107.238 36.8971C106.255 36.8971 105.355 36.9233 104.459 36.877C104.34 36.8485 104.227 36.7953 104.129 36.721C104.031 36.6467 103.95 36.5528 103.891 36.4454C102.324 33.7099 100.778 30.9623 99.2257 28.2183C99.1008 27.9967 98.9649 27.7812 98.762 27.4433V36.8612H96.1621V24.1131C97.1979 24.1131 98.2496 24.0905 99.2952 24.1356C99.4627 24.1429 99.6607 24.4272 99.771 24.6226C101.241 27.2077 102.703 29.7966 104.158 32.3894C104.274 32.5946 104.402 32.7924 104.565 33.0591V24.1605H107.237L107.238 36.8971Z" fill="#1A1819"/>
<path d="M13.6306 36.8959C14.1382 35.688 14.6122 34.5623 15.0832 33.4353C16.3122 30.4923 17.546 27.5511 18.761 24.6025C18.7977 24.4408 18.8942 24.299 19.0311 24.2053C19.168 24.1116 19.3353 24.073 19.4995 24.0972C20.2818 24.1453 21.2299 23.8805 21.8033 24.236C22.3352 24.566 22.4796 25.5304 22.7733 26.225C24.1901 29.5736 25.6027 32.9239 27.011 36.2761C27.0872 36.4587 27.156 36.6414 27.2584 36.8971C26.3201 36.8971 25.4518 36.916 24.5854 36.8801C24.488 36.8567 24.3972 36.8117 24.3197 36.7485C24.2422 36.6852 24.1799 36.6054 24.1375 36.5148C23.8383 35.8189 23.5782 35.1053 23.3174 34.3936C23.2887 34.2416 23.2039 34.1059 23.0797 34.0136C22.9555 33.9212 22.8011 33.8789 22.6471 33.895C21.119 33.9218 19.589 33.8883 18.0615 33.926C17.9356 33.9505 17.817 34.0033 17.7145 34.0803C17.612 34.1573 17.5284 34.2565 17.4699 34.3705C17.1591 35.0603 16.9367 35.789 16.6442 36.488C16.5748 36.6542 16.3701 36.8721 16.2177 36.8788C15.3933 36.9172 14.5659 36.8971 13.6294 36.8971M20.3153 26.7474L18.5483 31.4962H22.1896L20.3172 26.7474" fill="#1A1819"/>
<path d="M57.8061 36.8368C57.7515 36.8555 57.6957 36.8703 57.6391 36.8813C56.7398 36.8813 55.64 37.1991 54.9984 36.7942C54.3812 36.4046 54.2106 35.2795 53.9016 34.457C53.7548 34.0697 53.5909 33.8859 53.1455 33.8938C51.6606 33.9206 50.1751 33.9163 48.6902 33.8938C48.5376 33.8708 48.382 33.9074 48.2557 33.9961C48.1294 34.0848 48.0421 34.2186 48.0121 34.3699C47.7226 35.2125 47.3887 36.0399 47.0768 36.8624H44.2197C44.8412 35.3684 45.4383 33.9309 46.0367 32.4953C47.1212 29.8999 48.2211 27.3112 49.2843 24.7073C49.4756 24.2391 49.7139 24.0376 50.2245 24.0984C50.6042 24.152 50.9896 24.152 51.3694 24.0984C52.195 23.9608 52.5703 24.3054 52.8816 25.0689C54.383 28.748 55.9544 32.3991 57.4996 36.06C57.602 36.3035 57.6933 36.547 57.8079 36.8393M52.7714 31.5303L50.8917 26.7486L49.107 31.5261L52.7714 31.5303Z" fill="#1A1819"/>
<path d="M121.621 36.8971C120.745 36.8971 119.891 36.9196 119.039 36.8782C118.934 36.8508 118.837 36.8003 118.754 36.7305C118.671 36.6607 118.604 36.5733 118.559 36.4746C118.255 35.7811 117.984 35.07 117.726 34.3559C117.7 34.2155 117.622 34.0901 117.507 34.0048C117.393 33.9195 117.25 33.8805 117.108 33.8956C115.578 33.9157 114.047 33.8871 112.518 33.9236C112.391 33.9447 112.27 33.9944 112.166 34.0689C112.061 34.1433 111.974 34.2406 111.912 34.3535C111.613 35.0266 111.348 35.7149 111.12 36.4155C111.088 36.5761 110.994 36.7177 110.859 36.8097C110.723 36.9017 110.557 36.9366 110.396 36.9069C109.66 36.8722 108.921 36.8971 108.077 36.8971C108.401 36.1002 108.686 35.3818 108.985 34.6682C110.38 31.3313 111.784 27.998 113.17 24.6573C113.21 24.4741 113.32 24.3134 113.476 24.2087C113.632 24.1039 113.822 24.0632 114.007 24.0948C114.61 24.1441 115.226 24.0704 115.827 24.1252C115.956 24.14 116.08 24.183 116.19 24.251C116.3 24.3191 116.394 24.4107 116.464 24.5191C118.2 28.5605 119.907 32.6165 121.618 36.6664C121.627 36.743 121.627 36.8205 121.618 36.8971M112.966 31.5139H116.622L114.749 26.7523L112.965 31.5139" fill="#1A1819"/>
<path d="M81.5981 36.8971C82.4238 34.9203 83.1963 33.07 83.9696 31.2198C84.8835 29.0372 85.8036 26.8582 86.7017 24.6695C86.8656 24.2707 87.0545 24.0552 87.5328 24.0948C88.136 24.1447 88.7514 24.071 89.3528 24.1246C89.4814 24.1378 89.6056 24.1791 89.7165 24.2456C89.8274 24.3121 89.9222 24.4022 89.9944 24.5094C91.7132 28.5087 93.4029 32.5203 95.0949 36.5306C95.1318 36.65 95.1591 36.7721 95.1766 36.8959C94.2809 36.8959 93.4291 36.9184 92.5809 36.8776C92.4754 36.8524 92.3768 36.8039 92.2924 36.7356C92.2081 36.6673 92.1401 36.5811 92.0935 36.4831C91.7888 35.7897 91.5159 35.0792 91.2691 34.3626C91.2363 34.2122 91.1473 34.0801 91.0202 33.9932C90.8931 33.9062 90.7376 33.8711 90.5854 33.895C89.0786 33.9151 87.5706 33.8865 86.0637 33.9224C85.9364 33.9425 85.8154 33.9913 85.7098 34.0651C85.6042 34.139 85.5169 34.2359 85.4544 34.3486C85.1394 35.0365 84.8878 35.7543 84.6392 36.4709C84.6111 36.6112 84.5296 36.7352 84.4118 36.8166C84.2941 36.898 84.1493 36.9306 84.008 36.9075C83.2469 36.8795 82.4847 36.8989 81.6006 36.8989M90.1644 31.5127C89.5417 29.9346 88.9495 28.4351 88.2859 26.7553L86.5055 31.5127H90.1644Z" fill="#1A1819"/>
<path d="M36.581 36.8685H33.8665C33.8665 36.3333 33.8592 35.8244 33.8665 35.3154C33.9031 33.053 33.8665 30.7857 34.0042 28.5295C34.1541 26.0905 35.3526 24.6732 37.76 24.3395C39.8572 24.0485 42.0044 24.1149 44.1736 24.0211V26.3955C43.4424 26.3955 42.735 26.384 42.027 26.3955C40.9287 26.3592 39.8293 26.3999 38.7367 26.5173C37.2616 26.7608 36.5572 27.7818 36.584 29.3788H44.1547V31.6314H36.581V36.8685Z" fill="#1A1819"/>
<path d="M75.2025 26.4028H71.1104V24.1654H82.017V26.3864H77.984V36.8624H75.2049L75.2025 26.4028Z" fill="#1A1819"/>
<path d="M4.27817 24.138H6.9707C6.9707 24.4077 6.9707 24.647 6.9707 24.8863C6.9707 27.3952 6.9707 29.9048 6.98167 32.4137C6.98715 33.7532 7.57331 34.4576 8.90769 34.6353C9.71046 34.7162 10.5168 34.7568 11.3236 34.7571C11.8592 34.7741 12.396 34.7608 12.9742 34.7608V36.8405C12.8238 36.8678 12.6718 36.8849 12.5191 36.8916C10.9708 36.8569 9.41647 36.8916 7.87675 36.7571C7.01716 36.699 6.20445 36.3444 5.57761 35.7538C4.95077 35.1632 4.54873 34.3734 4.44025 33.5194C4.34139 32.9931 4.2896 32.4591 4.28548 31.9236C4.26964 29.3501 4.27817 26.7766 4.27817 24.135" fill="#1A1819"/>
</g>
<defs>
<clipPath id="clip0_344_6048">
<rect width="126" height="37" fill="white"/>
</clipPath>
</defs>
</svg>
