<svg xmlns="http://www.w3.org/2000/svg" width="536.232" height="466.647" viewBox="0 0 536.232 466.647">
  <g id="Atoms_Logo" data-name="Atoms / Logo" transform="translate(0 0)">
    <g id="symbol" transform="translate(356.303 0)">
      <path id="Path_1" data-name="Path 1" d="M-1060.8,484.636q-.757,0-1.51-.005l.043-5.289c.489.005.98.005,1.467.005a161.7,161.7,0,0,0,114.07-46.684,161.732,161.732,0,0,0,48.685-114.705,161.707,161.707,0,0,0-46.678-115.532,161.735,161.735,0,0,0-114.7-48.691l.043-5.289A167.017,167.017,0,0,1-940.95,198.719a167.014,167.014,0,0,1,48.194,119.287,167.013,167.013,0,0,1-50.269,118.431A166.978,166.978,0,0,1-1060.8,484.636Z" transform="translate(1072.679 -83.217)"/>
      <rect id="Rectangle_1" data-name="Rectangle 1" width="466.631" height="5.291" transform="translate(0 466.628) rotate(-89.786)" fill="#161615"/>
    </g>
    <g id="text" transform="translate(0 78.562)">
      <path id="Path_2" data-name="Path 2" d="M-1136.372,162.852h-26.07v-9.144h62.518v9.144h-26.194v73.265h-10.254Z" transform="translate(1275.36 -153.708)" fill="#161615"/>
      <path id="Path_3" data-name="Path 3" d="M-1092.595,196.828c0-10.5-5.436-13.591-13.467-13.591-7.167,0-14.085,4.448-17.668,9.268v43.612H-1133V153.708h9.266v31.384c4.2-4.942,12.354-10.132,21.376-10.132,12.476,0,19.025,6.054,19.025,19.027v42.129h-9.265Z" transform="translate(1320.536 -153.708)" fill="#161615"/>
      <path id="Path_4" data-name="Path 4" d="M-1078.484,162.094c18.036,0,28.665,14.085,28.665,32v2.347h-48.31c.742,11.242,8.649,20.634,21.5,20.634a26.076,26.076,0,0,0,18.406-7.539l4.448,6.057c-5.93,5.928-13.961,9.141-23.721,9.141-17.669,0-30.394-12.727-30.394-31.382C-1107.89,176.055-1095.533,162.094-1078.484,162.094Zm-19.646,27.552h39.164c-.122-8.9-6.052-19.891-19.643-19.891C-1091.333,169.755-1097.634,180.5-1098.13,189.646Z" transform="translate(1359.055 -140.842)" fill="#161615"/>
      <path id="Path_5" data-name="Path 5" d="M-1180.491,208.672h-26.067v-9.144h62.515v9.144h-26.192v73.265h-10.256Z" transform="translate(1207.673 -83.408)" fill="#161615"/>
      <path id="Path_6" data-name="Path 6" d="M-1181.258,209.245h9.268v9.638c4.818-6.3,11.739-10.872,19.891-10.872v9.513a16.284,16.284,0,0,0-3.708-.37c-5.682,0-13.467,4.7-16.184,9.511v42.256h-9.268Z" transform="translate(1246.49 -70.393)" fill="#161615"/>
      <path id="Path_7" data-name="Path 7" d="M-1126.278,262.274c-4.944,5.438-11.739,8.279-19.77,8.279-10.129,0-20.877-6.8-20.877-19.767,0-13.345,10.748-19.646,20.877-19.646,8.156,0,14.95,2.593,19.77,8.155v-10.75c0-8.031-6.427-12.6-15.074-12.6-7.167,0-12.973,2.6-18.285,8.279l-4.326-6.424c6.427-6.673,14.086-9.884,23.848-9.884,12.6,0,23.1,5.682,23.1,20.137v41.019h-9.265Zm0-17.048c-3.583-4.944-9.883-7.413-16.432-7.413-8.649,0-14.7,5.433-14.7,13.094,0,7.537,6.054,12.973,14.7,12.973,6.549,0,12.848-2.471,16.432-7.413Z" transform="translate(1268.48 -70.542)" fill="#161615"/>
      <path id="Path_8" data-name="Path 8" d="M-1143.867,208.5h10.008l19.891,48.929L-1094.2,208.5h10.132l-24.833,59.677h-10.132Z" transform="translate(1303.857 -69.646)" fill="#161615"/>
      <path id="Path_9" data-name="Path 9" d="M-1088.869,207.914c18.039,0,28.665,14.085,28.665,32v2.349h-48.311c.742,11.242,8.649,20.631,21.5,20.631a26.088,26.088,0,0,0,18.408-7.534l4.445,6.052c-5.927,5.93-13.958,9.144-23.72,9.144-17.666,0-30.393-12.727-30.393-31.382C-1118.274,221.875-1105.919,207.914-1088.869,207.914Zm-19.645,27.55h39.167c-.124-8.9-6.055-19.891-19.643-19.891C-1101.718,215.573-1108.018,226.323-1108.514,235.464Z" transform="translate(1343.123 -70.542)" fill="#161615"/>
      <path id="Path_10" data-name="Path 10" d="M-1089.9,199.528h9.265v82.409h-9.265Z" transform="translate(1386.653 -83.408)" fill="#161615"/>
      <path id="Path_11" data-name="Path 11" d="M-1136.452,317.832l7.783,8.4-7.164,6.181-7.907-8.525a41.552,41.552,0,0,1-22.365,6.176c-24.461,0-40.893-18.285-40.893-42.624s16.432-42.626,40.893-42.626c24.342,0,40.9,18.285,40.9,42.626C-1125.208,299.544-1129.285,310.17-1136.452,317.832Zm-13.961-1.115-11.736-12.722,7.164-6.057,11.615,12.479c4.818-5.806,7.537-13.837,7.537-22.978,0-19.276-11.861-33.483-30.271-33.483-18.531,0-30.267,14.207-30.267,33.483,0,19.149,11.736,33.483,30.267,33.483A29.411,29.411,0,0,0-1150.414,316.716Z" transform="translate(1206.998 -13.931)" fill="#161615"/>
      <path id="Path_12" data-name="Path 12" d="M-1128.745,305.592c-4.572,5.19-12.354,9.884-21.25,9.884-12.479,0-19.027-6.054-19.027-19.027V254.319h9.268v39.289c0,10.5,5.312,13.591,13.343,13.591a22.832,22.832,0,0,0,17.666-9.019v-43.86h9.267v59.674h-9.267Z" transform="translate(1265.263 0.655)" fill="#161615"/>
      <path id="Path_13" data-name="Path 13" d="M-1114.56,253.734c18.039,0,28.665,14.085,28.665,32v2.349H-1134.2c.74,11.245,8.647,20.634,21.5,20.634a26.092,26.092,0,0,0,18.411-7.537l4.445,6.054c-5.928,5.93-13.958,9.141-23.721,9.141-17.666,0-30.393-12.724-30.393-31.382C-1143.965,267.7-1131.611,253.734-1114.56,253.734Zm-19.643,27.55h39.164c-.124-8.893-6.054-19.889-19.643-19.889C-1127.408,261.4-1133.709,272.143-1134.2,281.284Z" transform="translate(1303.707 -0.242)" fill="#161615"/>
      <path id="Path_14" data-name="Path 14" d="M-1112.822,300.311c3.954,4.572,11.49,8.525,19.643,8.525,9.144,0,14.088-4.078,14.088-9.884,0-6.548-7.292-8.647-15.322-10.624-10.132-2.349-21.622-5.066-21.622-17.42,0-9.268,8.031-17.175,22.24-17.175,10.129,0,17.3,3.829,22.114,8.647l-4.323,6.427c-3.583-4.323-10.132-7.537-17.791-7.537-8.155,0-13.221,3.708-13.221,9.019,0,5.809,6.8,7.659,14.579,9.511,10.378,2.349,22.362,5.314,22.362,18.533,0,10.008-8.031,18.039-23.472,18.039-9.762,0-18.042-2.965-24.094-9.389Z" transform="translate(1344.096 -0.242)" fill="#161615"/>
      <path id="Path_15" data-name="Path 15" d="M-1086.695,311.387v-39.04h-9.886v-8.155h9.886V247.884h9.265v16.308h12.107v8.155h-12.107v37.064c0,4.448,1.977,7.661,6.055,7.661a8.937,8.937,0,0,0,6.3-2.471l2.719,6.916c-2.349,2.225-5.684,3.832-11.12,3.832C-1082.248,325.349-1086.695,320.283-1086.695,311.387Z" transform="translate(1376.406 -9.218)" fill="#161615"/>
    </g>
  </g>
</svg>
